<mxfile host="app.diagrams.net" modified="2023-08-16T20:19:49.853Z" agent="Mozilla/5.0 (Windows NT 10.0; Win64; x64) AppleWebKit/537.36 (KHTML, like Gecko) Chrome/115.0.0.0 Safari/537.36 Edg/115.0.1901.203" etag="yz7EuephVaqaKeePcb4C" version="21.5.0" type="device">
  <diagram name="Page-1" id="aAovXP24J2qmCvgzMCL6">
    <mxGraphModel dx="1236" dy="549" grid="1" gridSize="10" guides="1" tooltips="1" connect="1" arrows="1" fold="1" page="1" pageScale="1" pageWidth="850" pageHeight="1100" math="0" shadow="0">
      <root>
        <mxCell id="0" />
        <mxCell id="1" parent="0" />
        <mxCell id="1uTQNlGQSllIEXjCBKUj-4" value="&lt;br&gt;&lt;br&gt;&lt;br&gt;&lt;br&gt;&lt;br&gt;&lt;br&gt;Datafactory(ingesion)" style="whiteSpace=wrap;html=1;aspect=fixed;" vertex="1" parent="1">
          <mxGeometry x="190" y="120" width="124" height="124" as="geometry" />
        </mxCell>
        <mxCell id="1uTQNlGQSllIEXjCBKUj-3" value="" style="image;aspect=fixed;html=1;points=[];align=center;fontSize=12;image=img/lib/azure2/databases/Data_Factory.svg;" vertex="1" parent="1">
          <mxGeometry x="220" y="144" width="68" height="68" as="geometry" />
        </mxCell>
        <mxCell id="1uTQNlGQSllIEXjCBKUj-5" value="" style="endArrow=classic;html=1;rounded=0;exitX=0.5;exitY=1;exitDx=0;exitDy=0;" edge="1" parent="1" source="1uTQNlGQSllIEXjCBKUj-4">
          <mxGeometry width="50" height="50" relative="1" as="geometry">
            <mxPoint x="250" y="304" as="sourcePoint" />
            <mxPoint x="250" y="374" as="targetPoint" />
          </mxGeometry>
        </mxCell>
        <mxCell id="1uTQNlGQSllIEXjCBKUj-6" value="Raw Data&lt;br&gt;&lt;br&gt;&lt;br&gt;&lt;br&gt;&lt;br&gt;&lt;br&gt;&lt;br&gt;Data Lake Gen 2" style="whiteSpace=wrap;html=1;aspect=fixed;" vertex="1" parent="1">
          <mxGeometry x="190" y="374" width="130" height="130" as="geometry" />
        </mxCell>
        <mxCell id="1uTQNlGQSllIEXjCBKUj-7" value="" style="image;aspect=fixed;html=1;points=[];align=center;fontSize=12;image=img/lib/azure2/analytics/Data_Lake_Store_Gen1.svg;" vertex="1" parent="1">
          <mxGeometry x="210" y="404" width="85.85" height="69.75" as="geometry" />
        </mxCell>
        <mxCell id="1uTQNlGQSllIEXjCBKUj-9" value="&lt;br&gt;&lt;br&gt;&lt;br&gt;&lt;br&gt;&lt;br&gt;&lt;br&gt;Data Source" style="whiteSpace=wrap;html=1;aspect=fixed;" vertex="1" parent="1">
          <mxGeometry x="20" y="240" width="100" height="100" as="geometry" />
        </mxCell>
        <mxCell id="1uTQNlGQSllIEXjCBKUj-8" value="" style="image;aspect=fixed;perimeter=ellipsePerimeter;html=1;align=center;shadow=0;dashed=0;fontColor=#4277BB;labelBackgroundColor=default;fontSize=12;spacingTop=3;image=img/lib/ibm/data/data_sources.svg;" vertex="1" parent="1">
          <mxGeometry x="40" y="260" width="60" height="60" as="geometry" />
        </mxCell>
        <mxCell id="1uTQNlGQSllIEXjCBKUj-11" value="" style="endArrow=classic;html=1;rounded=0;entryX=-0.01;entryY=0.885;entryDx=0;entryDy=0;entryPerimeter=0;" edge="1" parent="1" target="1uTQNlGQSllIEXjCBKUj-4">
          <mxGeometry width="50" height="50" relative="1" as="geometry">
            <mxPoint x="120" y="300" as="sourcePoint" />
            <mxPoint x="170" y="250" as="targetPoint" />
            <Array as="points">
              <mxPoint x="160" y="300" />
              <mxPoint x="160" y="230" />
            </Array>
          </mxGeometry>
        </mxCell>
        <mxCell id="1uTQNlGQSllIEXjCBKUj-12" value="&lt;br&gt;&lt;br&gt;&lt;br&gt;&lt;br&gt;&lt;br&gt;&lt;br&gt;&lt;br&gt;&lt;br&gt;&lt;br&gt;&lt;br&gt;&lt;br&gt;&lt;br&gt;&lt;br&gt;&lt;br&gt;Azure Databricks&lt;br&gt;&lt;br&gt;&lt;br&gt;&lt;br&gt;&lt;br&gt;&lt;br&gt;(Transformation)&lt;br&gt;&lt;br&gt;" style="rounded=0;whiteSpace=wrap;html=1;direction=south;" vertex="1" parent="1">
          <mxGeometry x="400" y="120" width="120" height="380" as="geometry" />
        </mxCell>
        <mxCell id="1uTQNlGQSllIEXjCBKUj-13" value="" style="image;aspect=fixed;html=1;points=[];align=center;fontSize=12;image=img/lib/azure2/analytics/Azure_Databricks.svg;" vertex="1" parent="1">
          <mxGeometry x="428.6" y="260" width="62.8" height="68" as="geometry" />
        </mxCell>
        <mxCell id="1uTQNlGQSllIEXjCBKUj-14" value="" style="endArrow=classic;html=1;rounded=0;entryX=0.422;entryY=1.047;entryDx=0;entryDy=0;entryPerimeter=0;" edge="1" parent="1" target="1uTQNlGQSllIEXjCBKUj-12">
          <mxGeometry width="50" height="50" relative="1" as="geometry">
            <mxPoint x="320" y="440" as="sourcePoint" />
            <mxPoint x="390" y="260" as="targetPoint" />
            <Array as="points">
              <mxPoint x="360" y="440" />
              <mxPoint x="360" y="280" />
            </Array>
          </mxGeometry>
        </mxCell>
        <mxCell id="1uTQNlGQSllIEXjCBKUj-15" value="Raw Data&lt;br&gt;&lt;br&gt;&lt;br&gt;&lt;br&gt;&lt;br&gt;&lt;br&gt;&lt;br&gt;Data Lake Gen 2" style="whiteSpace=wrap;html=1;aspect=fixed;" vertex="1" parent="1">
          <mxGeometry x="600" y="360" width="130" height="130" as="geometry" />
        </mxCell>
        <mxCell id="1uTQNlGQSllIEXjCBKUj-16" value="" style="image;aspect=fixed;html=1;points=[];align=center;fontSize=12;image=img/lib/azure2/analytics/Data_Lake_Store_Gen1.svg;" vertex="1" parent="1">
          <mxGeometry x="620" y="390" width="85.85" height="69.75" as="geometry" />
        </mxCell>
        <mxCell id="1uTQNlGQSllIEXjCBKUj-17" value="" style="endArrow=classic;html=1;rounded=0;entryX=0.5;entryY=0;entryDx=0;entryDy=0;" edge="1" parent="1" target="1uTQNlGQSllIEXjCBKUj-15">
          <mxGeometry width="50" height="50" relative="1" as="geometry">
            <mxPoint x="520" y="280" as="sourcePoint" />
            <mxPoint x="570" y="230" as="targetPoint" />
            <Array as="points">
              <mxPoint x="665" y="280" />
            </Array>
          </mxGeometry>
        </mxCell>
        <mxCell id="1uTQNlGQSllIEXjCBKUj-18" value="&lt;br&gt;&lt;br&gt;&lt;br&gt;&lt;br&gt;&lt;br&gt;&lt;br&gt;&lt;br&gt;&lt;br&gt;&lt;br&gt;&lt;br&gt;&lt;br&gt;Azure Synapse Analytics&lt;br&gt;&lt;br&gt;&lt;br&gt;&lt;br&gt;&lt;br&gt;Analytics" style="rounded=0;whiteSpace=wrap;html=1;direction=south;" vertex="1" parent="1">
          <mxGeometry x="830" y="120" width="120" height="380" as="geometry" />
        </mxCell>
        <mxCell id="1uTQNlGQSllIEXjCBKUj-19" value="" style="image;aspect=fixed;html=1;points=[];align=center;fontSize=12;image=img/lib/azure2/analytics/Azure_Synapse_Analytics.svg;" vertex="1" parent="1">
          <mxGeometry x="860" y="240" width="60" height="69" as="geometry" />
        </mxCell>
        <mxCell id="1uTQNlGQSllIEXjCBKUj-20" value="" style="endArrow=classic;html=1;rounded=0;entryX=0.432;entryY=1.037;entryDx=0;entryDy=0;entryPerimeter=0;" edge="1" parent="1" target="1uTQNlGQSllIEXjCBKUj-18">
          <mxGeometry width="50" height="50" relative="1" as="geometry">
            <mxPoint x="730" y="424" as="sourcePoint" />
            <mxPoint x="780" y="374" as="targetPoint" />
            <Array as="points">
              <mxPoint x="780" y="420" />
              <mxPoint x="780" y="284" />
            </Array>
          </mxGeometry>
        </mxCell>
        <mxCell id="1uTQNlGQSllIEXjCBKUj-21" value="&lt;br&gt;&lt;br&gt;&lt;br&gt;&lt;br&gt;&lt;br&gt;&lt;br&gt;&lt;br&gt;&lt;br&gt;&lt;br&gt;&lt;br&gt;&lt;br&gt;&lt;br&gt;&lt;br&gt;&lt;br&gt;&lt;br&gt;&lt;br&gt;" style="rounded=0;whiteSpace=wrap;html=1;direction=south;" vertex="1" parent="1">
          <mxGeometry x="1030" y="120" width="120" height="380" as="geometry" />
        </mxCell>
        <mxCell id="1uTQNlGQSllIEXjCBKUj-22" value="" style="shape=image;verticalLabelPosition=bottom;labelBackgroundColor=default;verticalAlign=top;aspect=fixed;imageAspect=0;image=data:image/webp,UklGRnhdAABXRUJQVlA4IGxdAABwXgKdASqwBLAEPkkkj0YioiEhI7WIMFAJCWdu8ocbd/15+lgP+l+wG0ff3/SE8H/uHko/QD36+WTPtpzk19yNV/K/M3mFZn+Xtvzz9P/Ve8znvzt9l/vP7Kf3D/w/7L5n+Q+r/vx95/Qv9c/XX7+v8PcB71/uvKa8z/Vf9d/W/3c/wX/////4g/0n/W/uP7JfMb+nf2n/pf3f/A/vR9in6Zf3z+2/4//e/2H/////8V//D/c+1L++f9r/k+xz+gf4f/k/4r9+P+19MH/N/bL38/2b/Y/tn8Cv9u/zv/D/P/vof3p9k7+l/7///+uZ+03xD/tX/8v818Jv8p/rv/t/bb/////aV/wHlP+p/wn9v/wX5D+oP579k/e/y+/uX0o39/pvAr+Rfaf9n/WP8X8POyn9z/k/QF/Gf4//hP7D+7X9x+fZ8zqD6AvuR9W/7P9q/xnucfh+a/8P/sfYD/Nj+v+6P/S8Ob0L2FP6P/iP1p94z/G//H+79cP1j/8f9d8H386/vX/X/wYTxyygagCD1fgAUUAQer8ACigCD1fgAUUAQer8ACigCD1fgAUUAQer8ACigCD1fgAUUAQer8ACigCD1fgAUUAQer8ACigCD1fgAUUAQer8ACigCD1fgAUUAQer8ACigCD1fgAUUAQer8ACigCD1fgAUUAQer8ACigCD1fgAUUAQer8ACigCD1fgAUUAQer8ACigCD1fgAUUAQer8ACigCD1fgAUUAQer8ACigCD1fgAUUAQer8ACigCD1fgAUUAQer8ACigCD1fgAUUAQer8ACigCD1fgAUUAQer8ACigCD1fgAUUAQer8ACigCD1fgAUUAQer8ACigAuuutf/xmlUGSqtj5d8hiEcay1keyRcsoGoAg9X4AFFAEHq/AAooAg9X4AFFAEHq/AAOTc/WGj8fAPUXysKDxahuEgxE/lZt1s9sOqC7ZIuWUDUAQer8ACigCD1fgAUUAQer8ACigCD1RFoJJKIULDPWbvOLsrS7jOgHKlHRUBYai2jqzAXIYq/9QMSclX7ifPV+ABRQBB6vwAKKAIPV+ABRQBB6vwAKKAIPKUG5KlmRRmJjoaTwF4XkwMeLUIZ6cnKOyRlDiHWybzpXDh1qXIGlHG/hago8VQAooAg9X4AFFAEHq/AAooAg9X4AFFAEHq8wO+YLZAkBn7QeApPsa0NEHTB1clC/4iJDAvvsZlcxB1/OOcSCjI1lVDW4B2WBE4G/dwooAg9X4AFFAEHq/AAooAg9X4AFFAEGn2c2wclbdlAAopQKslSZYaJgODEAEjkn3bt89FN+PU8nr8QS2B+vbSOlaG4FBKyWgQi2SLllA1AEHq/AAooAg9X4AFFAEHqjT+zFC9bqwUUAQfMQBQPyz6DK7lPoOknXcWmldR2YNzTibrUWS8KUvDf12/kMFICigCD1fgAUUAQer8ACigCD1ffkygzp5fGoAg9ZPNbZtGreTYxveXlQXJM6JplWHxBXKq2i152hWOtwMfzk9v6jhdtWKHbJFyygagCD1fgAUUAQer8ACidBDBJVi2SLllA1AIJOebKqxZ6JO4NF/IEfdAc7hPwj6YneAih2oL9qo3OaSUoS0yBZwAooAg9X4AFFAEHq/AAooAg8u9fBw1E4hICigCD1fgAUUcZSSGCQ342/gCzMv3UuS11sjFrKfJEE5d5mkWY4CApDwyUweaJV+ABRQBB6vwAKKAIPV9/4hejkl789X4AFFAEHq/RVaG1P4vXGEEH+X1u+f9CvxKxC1nTbXkTs6bh4wLOwD99s/L41AEHq/AAooAg9X4ACPWsr5OGnYKKAIPV+ABRQBB6560wcn5MxQRoPw/f/IDK6c3A75zif8zBmyd0/cZllmKdK4UUAQer8ACigCD1fgATaAquoEx5fGoAg9X4AFFAEHql8WPN9cjqnsz028ffe7Qkr51g5N6Z5v2CIfLaRWrZIuWUDUAQer8ACigA17i3FNFyygagCD1fgAUUAQer78o9X9DqRsrYyBLSWYeyRcsoGoAg9X4AFFAEGq4jEVhUjDLKBqAIPV+ABRQBB6vwAJodRNrXiq+rdPQer8ACigCD1fgAUUAQariOIewAKKAIPV+ABOjFINhDU/eu2BcsoGnMVowCm0OCtWyRcsoGoAg9X4AFE/lOspEpJB6vwAKKAINKsv2p9hp0R5vRIdaS/dSlV34X4AFE5jV1+gErpXCigCD1fgAUUAQer8ABHrXBWKLllA1AEHq+zWPFgLRoPdbxVbNjXwAQNQA+y2Rl5284UgKKAIPV+ABRQBB6vN3ssowyygagCDS1oncim5Nd0bnp7Pb8rnNVFue2rZItMmbLH++fIZZQNQBB6vwAKKAIPV9+TKzBchXq4tki5ZGzAC8pHbX21B9obFXBPmMfllTz1pB6z4t7tpiuFFABe8gInLzt5wpAUUAQer8ACigCD1eQdqavIlXOiDkqofs9X4AE0ZIymAB76YyVcnWXlJ+VZAQcKQFDvAYQ/fPkMsoGoAg9X4AFFAEHq+/BZacaVKI8Z0TiXsKHu9zRRhnk7o6/qY8Ciey3C1vE0Bg9ki5XjI5whRE4K1bJFyygagCD1fgAUUA7jOQJTpvFL3fzJAq+i4I5+B2kRLH0WvNvVXu4+8TP+TGn57H6FGiiQBB6vKXWlj+58qIUgAUUAQer8ACigCD1fgAUUAPlKRTqidCClnQZNpbrgsEAyJWKSrmQxe+VK8BaHRookAQeryyOWddXnbzhSAooAg9X4AFFAEHq8rILqoFBeRaJZv8GE5KBYcje0VOr8kAOjxUBCkdoOoHmn9fiBsFUoPGoAL3kBEwgkIQUgAUUAQer8ACigCD1ffgj5+6pefaiV0eM+UgFc7GMQxlkd6F0SXe6hGepo43pNtrDsQuiSznTisMsoGnMauvz12gRAFskXLKBqAIPV+ABRQAVY8gGuFQemorZR74nw7R6yAhSi8UCv8nn2WN+Z8KnbwVZwpTY5l8afxZmckd58hllA1AEHq/AAooAg9X2jWAyg2dEBbM1ur2qJj1FD41dM307z7LG/fg+s0KJLIfZWoAg8u9xp58hllA1AEHq/AAooAg9X4zby3Yg21+TK/RBMEeKHRoofDP55DCrVuRDQN98G9+SVxkAUUAFs5MvQDZz35DLKBqAIPV+ABRQBB6vxm2Y1wxS3ope1YI9b6Kr6uarzGkdq4Y/f6t7K1AEHld5AROXnbzhSAooAg1uaX+SSLllA1AFnlQqyRX6zMQCDfHe+/fOeDu+XebgtbxLOiJdAEHq83ccSV0rhRQBB6vtXTJgVFatki5ZQouGP4hfdVa3iaAfhs5LW+2WOCdPLTwR19q2SLkOzJ3nyGWUDUAQeqYMdvjUAQer8auKaH/RyoibZPyrICGmr3zHHs6NDSPWQEKUYZZQNOggfvnyGWUDUAQeqYMdvjUAQer8ZrASO4q3ZwbORcu85SJikn8EypS6gEb0pzKhVq4ZAFFABbP3dE8vO3nCkBRQBBroGUy+NQBB6o4/lDKtJKPxcl8vBcQCDfHed3vgESZCpqiY9Q9yvwAJtAVfD8UDIAtki5ZQNOmMdvjUAQer7NblHE9HGHDOEOPhfXjv1kBCk/hSflWP6xC6JLvasKKAH2WyMvO3nCkBRQBBroGUy+NQBB6pOPN9g6pzZJK8BpSh+cg/ur0AhlgpNNfkyotZUKtW5FRMMh2a9JFyyPCpWFjDRY789X4AFE6Yx2+NQBB6vwB/Z3aSlksN1FxbCID2hNailbAG71AcA15uC1vEoY9BjLEq+/AC9284c/12409B6vwAKJ/OAZTL41AEHq/AAonI0xJ0GOIGskImHAgDljjQeL5dvso3kt7cYxe2bq+9BquuprTNlmGLhU7SqE6r6o9Kj/es8ecc4LYBruhVEvkF7yuxS2khxHCkBRQBB5iZ6n8ACigCD1fgAUZe9dqanzVMvENVr4soY3FRSHkEl4tfWCPSnMqFWdb55EWapwFOJQVnlx9G1K9uZ0Gknk41v9iJLAANITJY9NgXLKBqAINdAymXxqAIPV+ABRQCAA+cEHQW2zfKzoLhT+PH4J08tQZTxAxBU2FUmB+Wfp1x7/knAK9fJQsYVhz/2OBJGDUAQer8ABNMdvjUAQer8ACigCD1ff9zucK3tIUwTMzS8Klgz6CPS/TZR0JjelVXSYHnwPw2tDtKsG0P0kjlGfT1upihIffujlqacBRQBB6vwAJuwMpl8agCD1fgAUUAQer7WYQXETNbUhK2YVLQdSh+YBp2384R4+O84Bgpe+pYlc/IU6yD1fgAUUAQa6BlMvjUAQer8ACigCD1fgD+u7Yk6W0SFSwekNykD5LYlX4AFFAEHq/AAon84BlMvjUAQer8ACigCD1fgAUUAFIEkoXB5Tj/IaQSZauBrOaWpfGoAg9X4AFFAEHq8/AymXxqAIPV+ABRQBB6vwAKKAJtPeBCVUBAbg/VGSSOKC/hj8uT+ABRQBB6vwAKKAINdAymXxqAIPV+ABRQBB6vwAKKAIPXRT0UAQer8ACigCD1fgAJpjt8agCD1fgAUUAQer8ACigCD1fgAUUAQer8ACigCD1fgAJpjt8agCD1fgAUUAQer8ACigCD1fgAUUAQer8ACigCD1fgAJpjt8agCD1fgATU9qAqsYItEzgBRQBB6vwAKKAINKVK9gAuzIdkp4oL2kb1X+Ll8agCD1ffmTHb41AD7j3d0nJZP+P4bKucvTDuI4Zjp331YBL5dKRtrVMlL1AAAnpTSqXL41AEHq/AAon8pX2nOmGlMrc5sJcyL/IbQTzO+CYJTTrvvV6DeNQBB6vwAE0x2+NQA+5fJ0OqnLADaWVUSOpjK+g6TxDOPBEcDiyaZrYIj1XFzjfgvKnnWncKWMnnFI3PsJewgT8l9dBQLVOO9YBSZ69/T5Fk1hJIHzJPbPs5432KzLpgx5EVlrk/f0TknXyxKvwAKKAH3zHb41AD75ntUtpgEBjqmG+1xdBcAjKdTbwZ90TfXCo28Q28dFl1dTcPHVhlMlYbspEoybTi2QMrAuFKFqVeudmpECUDPaHV+htRE/N8eCFIVeD33DvyWznp4OMiO6Kkyp6LyduBndvItj89HHxIs6e2mzyPIKw2HHhf9VCT8JUKZ5PCo2zCcPfhy7trN0L1O+CERJcjd3F455bR6r8ACigCDzEz1P4AFDtSp1WbrxFZh970t8Wa4xmSVmbYmpKY/yDwHZL3rxtnTG2JczG2PcB2xK3zZZ/JJ2k98jrmg6R4UTc67eu8mmZQRLmGfg6DERDau6oyyyHgAPqlnBgn61mzeHwU2J5sEzmijxTKfx176uq6LkDdt5PGas3z1WOl9fM10I/KEzy0XqeGm0hExEIhkoy6ypFUMEgnEJZ64Atki5ZQNQAdM9T+ABQ8ASc1NA1vaj/Fpycg5OgGLcxs/A4bFO/Fe9z/TyWuImaYC05AljMc1EAPlZ9hRqsyX+931feaRCR9iuAep3NJonQntZE1DGdtEKyKIfZSY4N+/VBU+WwpY6+Y9Ne6XJOKm8e34Xlrx+K3Oo5J18sSr8ACigB98x2+NQA+ygWZP+QdmFXB/dat5s9Zqf4nCnOz+lbFcDBql+/NUlMPjSz4s7XwztRHBAsCHN7BLUVIYf6Mb6qyh7MCuuGuEoIFhzbsCh4SAsfNX1VO78/7YBGc7/I1gv7nSKI/lK9VR74laqxGh8fu4pJHpiCOeuC9WXU+iiQBB6vwAKJ/OAZTL40/iGmgGtd+1vZBTFUAnB7OYMG7QdFRgCELZabnxuUmEv2dnzTMCJRnfVpTdFj5X/SMvck0kvg8BpCn0Oz06W/0cf2A0U0gLyVu+HQYoNSOoD9qOPBW2YZqUkYVUklryVLQf1J2o2LYQih/2o5j39xBrKIIwDFuMzmyBuiQ8s5hko+H2wLllA1AEHqmDHb41AEJWaCwjK+vhTdKWt2JGkwVveMTPqMr5ydZAV0vX+qFFFAEHq/AAofLPU/gAUUAQer8ACigCD1hJQNQBB6vwAKKAIPV+ABRQBB6vtaY7fGoAg9X4AFFAEHq/AAooAg9X4AFFAEHq/AAooAg9X4ACaY7fGoAg9X4AFFAEHq/AAooAg9X4AFFAEHq/AAooAg9X4ACaY7fGoAg9X4AFFAEHq/AAooAg9X4AFFAEHq/AAooAg9X4ACaY7fGoAg9X4AFFAEHq/AAooAg9X4AFFAEHq/AAooAg9X4ACaY7fGoAg9X4AFFAEHq/AAooAg9X4AFFAEHq/AAooAg9X4ACaY7fGoAg9X4AFFAEHq/AAooAg9X4AFFAEHq/AAooAg9X4ACaY7fGoAg9X4AFFAEHq/AAooAg9X4AFFAEHq/AAooAg9X4ACaY7fGoAg9X4AFFAEHq/AAooAg9X4AFFAEHq/AAooAg9X4ACaY7fGoAg9X4AFFAEHq/AAooAg9X4AFFAEHq/AAooAg9X4ABwAA/vokD/8bI3gfrb/42R//IzwkymYUQdEAAAXAFAAAAAAAAAAAAAAAAAAAAAAAAAA3n2dK5jVWFP7ulCUK1lOAk8XFXO7H+N9PkKswd1YIcY/VmEwsH1OlY/epUcOCS6jrsSQrNVrkIGAK8bh6hj8GXkQecEL2iXqmpuxnaq5Co3tuUjvie2AD4186OEzC0iEvUGiBGK9WWuQ6n9dc3R6BfPpRfMQm2bL3mBhISuHSWn7ObzoCBOrzjElmWEny6ADE3flVs6q35nOqk/QcaZ8mzIGXJJVHs4TS+zw/SQndSx6O8KLMsMOWd3a1YhSxLRJxKwLi0nMkVGTPjD9FwRdtESwWLYRSXQA/FMWydTiqtMDatuLJ8UlNFg729aCdLqnwYh/DZa0AABChlHsEzrmY6qEs/OTPcZZWrQLkNAySUHe/XYg1MBycOGmBbk7iPuQRJuHXu0SyDr6KplXe1sUOnZWx1H4GT+U+BvW8BNh/GCtouCIRfz90gnE2su8tnExxBhSuHfS1Gde1PqotZiC6ze9Wb7R4ekPcQO0v/aP6N4EG989AAzUr3zIoLBU5G6dmihph+7to8Hbi5sWA7TW2/CbJqqzVYrZmreLaYdMpwAYGciFhLOWanmkXmF6pLUWO2v3r6oLsqkAviBM87dyqlgmWYK6rGDUwgcBGwGIX2miaLyy/nOR4IprTkdnm//87ZeN5DTKTRllRQ26J0t85ee9pIxCfIzdCWzyNjfYFLI+JJdhD8GkVlPUdcxRL1giuq2EuoE0oDSdMAADGGiDpE/WNnkUKVbmESzn87mggVRMxyErIjqoSGGlm65AkzfrktAUzkcxX8hBJdzkJpoIbxeRaVj0dTWmUCOrXAOaFL3DW17g2k9VcEw4B8wTBX9nxDAlObWMzG6qQ3ilelmL7oNMD30ycjpn+nbIysBtr2KVM6gmZ19zRerrGfN9SmzmyA26fmAhq5Y3HRhR+ZREKF68+c5sQrivFH+fi03rFF5GcW88zXqdNWiN5IvVuBoJxorfTNlmWBBUN7gCnT+rUnhqHvAJ3jhT3pz4xK1tSkj9DyzFi2YN8oz9W5BG2DRCfNBTYqR5RJ0z7tPghelW3QXwmAtZi86ipoYA3JJ1H2bWX+7oQH+UDqWKGXHJNI8K3udi+ToUkdzgR+G20/xixcBdL1xDVX7eTriMqhVMQqpCdpQQzYwGd5zHIRfHUjgr8bnwvjqcq3QgLEo1zvqsqug+p1X33y+LMj6wpWyB6zL2WjF2OewY9yk/LJl1mSqZ7PtU7pA2at7EkEuoSCuAGa1HFblc01HSDO5GqUwEiHpD84WaSkd5zjAACC7JMjq+DklYbrxRYKvw9L59GZ6Wb+m5by7hljtnRpVlPbXGDIz+DYcaR0iQ1joV+ws0iu18IVPIYKrW7vBtQ6GQngi2N+SOjVcwMy2Hj3svLeUW1FZPKnTYm7D75VvC9xY6NqkOr7RgmHEoCQxyTObkOI9c8ERAXC+Uogo+WjJta25UUC2DOALKRwdq46DqR5q/QwK38os9WOAZNNmZLsHlA7u5Hpaf0N/GlqnvmsbHQQjzOuXSqvS1aQeyANYZ3TmMzgTITQearCJLLOFs19HBEyTAM/oFL36Scye+94iBx5an6Y1bEpAZwhWBnsjBp1GvnolEgVPZFoJMaKXoX7yX3wkZYAn9YlAOZoUL73xVmXQW1zvIqPf621dSmPc/QM7tJ8ToAyAtXFsMG1PJaEhDVWH2kI15kSmbS0TdE55zf53kQwl3GL9gD975F2/Z6CD1JrImPbO1tdaBvY6UCGLzE09EIIHvVwJKVG8eTcltYXIJHr3ugXpTyZQLQBBaRNne3cvmeXj/1BgowyoHK5WmHB73NVWMMY5gqqp0b0IsambUkNaNy2osp1EMbsHcYszbREJJ66fqRLUQEb1xANtaNCieU13gOt+BSj7AnJQ8WG+bRFCeKfwrL36qqr9y/YRHacqyez7/a+R4ot5oeTHneAADOzgEaNpdTjvjGPYJTJZT3bSAwun/7TDNvDDPCJNJ2T28tpiOP5YGCvXIapXY8QRhOqWiv+fFPCx1mHe/6usmRex5JsW9BhRyHu1qhm7X8+jSE1YfhwQUsoABAS+YR4JichAdw0dHyHjdPb+LGVqGRt/if+I+8UHu7bEfJdiV9dRFJZPj4HoKEMsY9iw/w5IhFrguDX3xyRZF32Mv6F7NzhGq0Vh6syovAkNlzW4YskH3PShXejvM0NX7WjqkC0V2QFy4nvCk6OIaWF3mz25Dhvptbo/IshPjZzaGqfoTwiT8GKP60rwxk800VdxEHifncWIfd/YjieYN2GW2GAuvhJ9Gd5gvKmq/frh72SLJFU+xVzbLhCJn4ZqP8sViNOKwD5gMVSS8scMXbNg/k5ZPe3m1aYk4WKKd4kw8otNmi+pkz9ATbg7ZBd1+DZ4GeWO+EGVvKUmRo9TVwO/u6QbgaM7GYxF4C9k+JUdrpsKzVmoQ9qYpN7zaTKYhnLbUJg4QOJyoX1YBfjiQ7vG5Yyjs4ztBwVJpSydy80NKEIRFIbS1xoABWMo682ZJcZMvLOs0YBrWdCIsVpL0mNqttQAAVJkmu/SoUCbIOPY/R98qemDKVHbkMLyPA/DPyd1lQCvkLz9267e27iJFLkIcH++fHTjHhGDstvS3Wovirj5FEKdnfu0UXZSgYvdiuAaczehk4qH6LDSTR8gxytNHCB3zhJ4/l+MJzI6xI8CXbdrv1CEZSfUbPpXGE9gHItluHd0UeSlps3v6Ygv8dhCOLsVcUVTtx51b8ETi+oxvYQ0dFKPerZeGAev+7/igH67oWifyz0zb9s7cZ51Y+XBmJVxrGIRD9U6Tfi7b+bZJv3Z/5YQtg6pTJT6dBEntmJeUqu9FztZKjBZaTCZUs6YIvlG2gBkT2Ts9BuSOTFTnYtZzKtpN5IpU65Fm5TBJSdzlRtWke3X76GZHVsBMaswXLG1wmWw08NepTmdPQlrM2KGPkNKXLFmdaYYaMj1CzeumEboHR/UK6F5QC70CsWMRKKuXy9Mjjf04FhkZjbX8IABioHWvyh0owVqb2fLfMAAW5SGTumD7xGmu4oxtI57CklhbrtWFPmmMzBJw+LQe8pb1zunaY8caPLE08A2+HD9VZwRROAjWszGCDgvlQQ/XHT4L9X5ekWr9jRq0LGV38NT5bQhUViPj1UlOO4Pbh/AaeSBkp1y97iQTj/Q81Z4moxEFq4G1PwaPZL9uyEUpePN4G8YklJRwyFIpK07gW+X21Jh0iU4K9hTOkGFPvWGm9rqjayfM6+IAkjeq2y3+PRwYAKCOHClwySPJNZI8jJ4NSy7d/ItgTHR6Uxo99TWbr05pp5CNfX+tKrAnVkn+tpcbknOhq40cvi0WNrp2rT1lRmt1ZOrt99ctqw5jOV+KjHxlgbDBZuyWG1zXfiHtxMziaC9GsGpoameW3ZAmVhpNM/ZYZ9AsCR4t3y3YdedUWBBapCTV+JF0lBtZ5z7a+kYnDhVzQoFjlH7subYhuMWIm6fyUOqzBTkb4CpAGVQePJQAFuE7rN5+3pGEqzwAACmD82IZ0OKz/xraytn4VVOXL8viuXlfvDkhr78rOZCK2n4kZtl5Vah5GBY0yA6rhHdufLd70LxKvgheUkP5zDJGxphBvdICyc/eNXgVEF2/+Yo+SjCrAqMHbx9p0brSdMFut43LDeTNAS8O7Oku4lc9J/u39epw3Ot8aXKpwfQIG/c5HuqBHNJ+HouDediGCPnOZ0T6ho/GvsnqAIEOiCptLOjsOoBQfub67lqApm5yAVrHuiKIxQEnzf4fuX+RMIjZQX4G4UJ3uOA8nGbCyOqa5A3i2W9e7s2oT8PRXufWKWmOp/H8IMMpmcqRiCV4kWPtkCUXfBeSoPXvmdS1JbSh0DXHHFU0xeM7YvFx73jAuNbmxYtIzIpbonP83wKYwknpm1IRi9/SM0v/FMFPKuyK6OPuf0fi4TzG1zsAV3jStyZ3h+tVqFzTfR7ZsnOGsAEUaStQkCDn4BawADeI4lxA9MkG4EMLQvVFQuApkdIDdetPpFYr6xRsxWzwaDKcgqaGXPXTTNq/4GthYRNS9ibmfwhmziLpCV/YU+NLg8V0CSUegvYkWu6shjZeg0rblOTZgeYo0Q4h3Tsm1mqePawvt+2OwkaeuXUlKckOje9zK8XjjFvglwtdOX40iRWzHez2e7YkvDtY1dm/ipZdryVMAWHAjqYcz4kFFMvnpaVsO8kSfPgNmu0qWyAReNaweyrQX3vBFvXKQXszUvnMYccSSN7VYDQdKBDQuzStuDBqCxY5Tk9WelhbNlSAx3G6BI/nZXk/cAJw6ducSbmA1+O8Ok+kIUDB30uwnrj9lhPEPDYy2ilrNNOgvPgB2EhsBsl0/Jhsts8V/0LBPw0YDPz0/C3ZfhnkBYZsUurzUN8hZYq2fJZfLqT9p6HMLwO6R0LXW2LgUQB/+bjTwVFcUJRABjSo17WAAA+ULHXrF34knCrDF5573DbtOn4vXhgDqsBBcYHr/EU1dD2smOiTX1Z902qAoSyfXBQEcWxOOI9pfUp1G2EXKyWk7WS9jXc9sFzIVOPRY2wpfQ2TX2HlfvJ3ZNNLRDX8wsKCjNGWJesw3pTJqO/48q7F9eNujWIs9D7IP9y5NrZRrZOE3dqXm7fQIg8ZKlKkzPCElMJeKF6sllYEU2yikNZxntgixfrY4rfVUAR3Yj7L3XcQd5N+vFAlz8RXtzENomvTLSaT60bUiTjHfBaFuHXKM4/xex/J44a6k9KaSGrHlpd/GLx90QBVzv6HwVb0moOWmqct93Wv9SX1tYrLJvHDbCMkN0yBrmwhl1kM3qB91w+cAItZgbv5GCgFCJvi1sR8pVLFEG7Mcz+DVe3VDy9uCMOGuBpCzWWure20PY7yiqfXA+YbP0x/5hVSGMOhzfwEK9We73LODhOYruAAhLNCLrQAAROIzUN3HjUP5bnsoAKEWmC5zF+omMLhgqXClIKo2MfCO6zTI+/y545TX09I8i+HzhrX+SAmIH9ZkIOD/0e/8DsWMGOSqvQj/zcieTwbBt7Fn+VnusObeGaXT+51HrtGc8l+DaAghy3JsOACiyPFIilXPQupCoL4ldc19+dTbXn5pxln7yQnwHygtqYVYfeQ+UpLlbp7mb/kzOsSH4pyxNDdjWnzttgcMoWM9vkQGnQ+O0h47Xtw3PkyOqFtpI5TNd409Es8EPBetops8TZ1W4fNVm7ttfAWn2ukKk0QPXobeQe6a70uNbHqIEmjjnxVSNf/t7oGPbuR7h7TjyeDOycDsQqN1OmsvEWNomLjW3D6q3cWfyk3ruwJPGtcGdjob6MeKNy+BeO1jvdoRmSgGBvyqt95qD4BMNNNsDwAABO5P1C9xfdAD0TJ6p7fZqusihmG1Gkf52nfdNxK4aRPwYfdzRq3cXAXwzZHmuSnikGgYg3wvelLB9WSYSPaETIgiPB+F5VUC8hllI+wGZSdV/rD4jeXwpJp3sKYsS/TSkhs5O25zwlTQImmV4RCLm6j9p43fnfi5mWuVWl8rWeBmE6X2ZLw0v8ea0M+oAmBsDNv4BwNH/Uh+ZZ7o2n7B46qEzkrWx75u9z9KRTzwQStQUm5eqO0TEsYdAliohSoHOguN7F9tKcN75ctBKJEj5bfaGNIkmU2sO/TCPYuRfUiGpSgcBes0FxVUKYl5dTJUlWG/qK/I5u/GSJT8fZQYNnhxCIgE/moRdkmRQAAFGQwAyxPYSImCSWTcB4BDns5Yq3UTtwP9X9S/ZrmRDGijOI62YtaBv3gPVBQCxVM2BTvO4Liva6FJa5mGDD2RHPZOCbWQpXcc9rJZXK7gfNG3Wwz79nNpCedWzCFJqY32foLQf2zejF2t6EZcIXU/k1tD1LdEAhr++neG0Rdpag1gFVsfD7ml+1JNcnBkomrq89Hr2weRMzESKWvq8insoSJCFb4OXUcebo2mHRTPaVV0QrM+qBsS4Hl9SqlFs2JJaPx670OoN5MpdPJKxYFiVUPNB2aIvFxccGwUATLTTbBcgaoABIrS3VZR0hq7rE+oNh0mh0XyqcRyxEwp6ZQDal4+TO3mvkExOx9IcWz5CtaOUbEMBDXFW5eEG/Tt0smDsxlUbtknug8pXF9U8K6Ml/y61sK+prAZLBSqyTjg2lvfm2JUGWUaLPL4ezfQYAmF8j1H/P7nYWpJaxQAB7WgAS0stS+nss1S5p5nsn/DP2YVNAwrf/tbJSuyhp4ipclg2gLKKAdm0D20V1AkTryd1vuNRsljq+thq5B1GtSt3i1tKAvmQCuBdTfYyAASzVm70LbnPVemiRDat0g+FYsRkNpmQ5hHwZz08Wp9pA01pb180GDEfAKv+qME1HhjAZfNPZBwMVEYhsMv3cRFkBWD9wxgDZ0855hl8HdLcNzh5Hitspn8HxvriTktI1JOQhpFqBO5aAj//nAc4Xx4/0qH84jcaDDVA0o2vNYU6013Ils/ZWWyEEAJUyJjrDNQ00QeHLL69QrVu76Yr7VFs6wAu+neOpJRUib/woOGpGFVEyYv+iimGIjpDgToe1XbD74kvWGMtPxo+UoFrHTjBatgPEqQCzI8PuJGU2YCPUWtFscUPcAF1ocxkBf6ROWljdy0KLbvG787Z9v/aaulscHGnGGE1wLAdiONv0hZVOP9pXNlDT07vbXsMJp3yq/AW7TNkjpd1N4/GJ6+q/YIHUwP9ilSCirsKn4ruznbucd5A7Wh4sc7Vd6Nt2vQMl09v4jXos2gmqi6/WXsMy+OYXM0Uht2kIStP1o77sHpr2x5sgfhJCswEyga60kl86/bOVdxs6sF2KsiY3OwH36/oGMxZWKidNmhF0qKB0a+RVVfCF9aKEsOV6K7TWAEphEmFSrigG8sDiMpPhj4YAAGKB5ueLFiXRoATWy1gCbzWJP5J+Cwkr11wIJemeRURCKbkZLitWj2iS5ORq1xedXzFc7a0/Z02qzPJ9KnUE8Y5qGABES8Prnw6zrjS0cHXLpT7Q0oqjnAUTdEBehvz/PnKYYVnD9TXwMIQvse6oQGJ0Ur/PL498G1jtltXM5m2A/O1pY7TP276FsKk4VlZo+ml+DTaiibE//t8x/+2wm0OhZZt/UHlYEh1tEu1gVYp8AJEvj7LE/dHk5t0EUvTpDu6g2k0RemHWHX7LYheTASIfo34GXxm2cFBJoXWy9JClNVTzXRBm0inZlopPLiYBU8Iyj2+BYA/e0I/cnY+f4sj1N7D7vw5QlfMld5ZXXMd5YRiBtUS53jfmJeVVyE+XQ61sU8cpkiA0mWvZSPWlRYVsxGHEuRXPyNVoqaWHTSb3qvDYLfilglxPsZxzkRI5n48vHL0EnGUc/+4XRZ0cw2pQ/muHibDdJ3hcvfWkiIYP7UnQ/0npolMvPxS3fulg3nxnoRDzH5kyvD1BPeMlXniP1C4D62xoNbRirwpf3epDKq7ZXxW01OUqZ7ljTKDwQJHh2OPRP7Zu8D2nPaeav/BNQ1JlbBjiqfnR7DnzhHo/5eFLsNpwK48oHQwuoE1PFA3ZehEXyABohc8LOwkggCTm8kIz/UMIL/vL+jeX/AxGxfyUDg+3w0YoVwoE7dFNKdV6MfuFl0W3WI02CbdKtQQfL56I4xDo2ZLkjfdd4IHJrbKOVlxmsLkppiJ/KVHx/fFBx0q5+NhuAB+ot/+0++DQI9o+7qEidevgKh4AUP8Sp+agcACC3rWfmE1g0pXvAaiFWwV5oUuCRNJrJjWfoJkNBu558g0c5q8jlIkKsoII4JutrNEfBeE3vJ3jVyYBshgc/4ZgKwAA6nK5RwTEEOOMq3O9aeSr7tIM/T1ysrQcKsiGuTMEh1x+7cmGZXm5jr+YaPsUC54Oe34xoH2xwC2dwvHtpzSsQucVi6ajQ+U+1f+4yFRpy2NhLDkmt+Hi6upzL/p2/qOdPOfVlQADlcx0IVW89stGDiuUpZGGOshJAXMadRe9r70HuJZjhzoLfuEhL5fBeVdCcSDsbVkL73h7WXHkRrRgeQRkTeXZFUzvuHDX30lAdA0lL1tJjKF6rxQUH1+Zw81J1HlVZCGuJxrWG19t4g2kRPI/RAbMjchBr5JYk9U8O4GS2C8sVpCF26BX4G9ph8UOvNMQ6koaL6gr8ynZt4YtXIOMmup3bUY9N5ixLouioSdjFlIdUEZgKBIZvQthiRwpNOZjmVFvemqa5gTT8yVN7VgXy5fzPyMOSacQZ9gDCmlUUBmPlpxD2uEWPY2B1SObH7o9HfwAADipZRt2EFxa2O8OeAkhucxHFZPRIoWv8GJLOHhCYKNNZVvD9J0MjsM0n6oI/QnV3O0AUoFAS7aCuiektpLKzUaL2vHflK4810pJaSVJ0fTCYy/X8dwnvds9WNdC1uPXRFjDBZ2xfVUI3weBVFZ0lym/YLHeKcXunML5dmjU+4XvBB+9TlUEp5Ybk72MNXgqrYIEz8yWjqO4H1loQmKBEYBX6/epGpS9VMmXGeHbiI9G/d3TxVVe4z3vRfVJH8B0h5qYECCpJUqvs+csXSC6iv7WR9/oq4lBb99r1xJ4NFuyv2+wvj6cprH6D/1i0DwDxv4OEL+VziIQrOlaADKMdxK6bljIIX/uMhUactp87DgvcOMJW08SD6XZZ+5xMAJJluxa4SHhaQfkRKebwF1TUpx97z27J67nZtAwEswgTKCE1bXXt2PIDlEpLkqfdXg/JKqrNKk/yUEpYl95/tx8NexxAAKb8XPTYFpJaP97RS2aR8+8nx12eHV4z331BBiTZdOqhTbt6RlC2QnUlwcoyzyR8k7/XvtiQVlybEOqRxmcVvnGRdVBoDUN+kgFkMyLQP+k7N+Fjm+Y6QgfpkkdN7ju9P5oAlQ4rgLnuLzYt5MZXUSKrDzqALPmsklUlF4p+2mvuH1kLZkUNzjsem07OUglD00AvCLSmQDq7PSBSJjpwX/FyyZThlKG/PlnF2ifX++HKGOlsR/3uYTWO/90t1CWCNEkBaMIz89NPmoaxzebgfGZGpSbVD/lHxVldCod07BEpCWtYEbdRleHyNB98AlKYxV5RtgTktRB5tg4HYBN4eKda2+TFLYG3mJuvXEPwjKE2zxts4W4pInpR9l+avZ0ccMVptoncQBmTIsgA6dZ17HQ0tawd2vBxEaPFcfVEONvMfWZSusFI4teT6QKsEhiabqI+oZROY7lXL4AM4Mi+mVdQ9P1YIkWRKO4pnrW9XGDMlk+HfhMsV433bYHMp5cy7HrVTE3DbMK+d2UblJGdknDzIYx0dP0oPgSw9rz/J47H4OYtFKTIy8I/Ngl9rPUc1ULgpaK0VKQl/XpoGoh8T7Mxw2ryRpjrSA7VYrxHLrWWu350TqL8uPO5wNcvaQZ7zb0PSD3FNkJhBQx7PEtOmRDoK/fHhWepucIq4EeeyNvUOVARnqbmO5S1UqQWJuQBeh2yxVBqpEM6fh9nML4b1kERSw8eYq+Twkp44iKVhKSjjxwDvotonp9iAcqtvXa2WWbLsaI4gl40CaByDkxxsIL+FhjgAqjWgNe2ozmpGRxbNbszIVmDgK1E0k4yzpNgJPwukTLwcppXjmf3AhELdJsDVfu40mwyIRYZQa6EWlv4AAmqr1N9e0jDxUiNuPdGmWIoMeSphyxR2OQSnbXe59+9dz2rmiGzwzkkhy5wM62KoHr4J0QlfYQ9Wadq89FvFnhsMGcIKd8w+anSE+wiaCKYZg4aetSncAoaiSxIP4sMNcQS3VoARwADcjWf+uYehKaczLFcDUKvQFYLnCQEf5pOgT7KjZYoVEl4r724Fi8X+n1dIMX2HjuzMWOlUmB5Lo+GVCUY/AePrOMt1ksIVxJ1tYQqh13yGPflaDRtmNeIs7QXSsFwrH3ofnGvS4o2loOLiNdFESc02gIU0sBibw3V6aBo0Pj365DSuHvy5t7YlQqtub62BRUAGsJ50YFgs63qPjiLLG5guWsE7wkyF9P5KV6xEr/0P5Qsl3R5OOnbgAx/sdCI4Z3JxDHw5DHWgQsMfkWTKKrsrgjr1IcsWMvwaMy+w1EtBj300vI8lF2h4R+DZSClSmcoNkMnTfQ9euIYaK0mEX0aHilyBM19Pk2yVGu1cTg5ms4uAOqD9OZcueDemkzJJL7dZHvn1znlvErGNHn7hPjeq7bekuzSw59Kqnq7hpUfsfyJPW1bVPKtTj/FQuzQ4Bq9ZOQReT6xXU0pBeASBdgP+OYoXBTjfPzNOJrMxAPgsNakRLBPuEwc+Xr+3kYfNzqY+r41YahRoLuWrskEScZGKf7HDwHMVaYZaSjvHqxF8kKmKC03wZMjng3sqTrU1Bx4OwvpVigKtmGc3Pv1+bm7BNcKXNusGMPpN0W3B33WluDAMdOR9OOn6EOtv/5Uj5+2BeeasJWlLAvHgDytyc/XmT0pIM7Tt/7YrShDsLrHBeHh86hGatfCqanVBSz/ic49VH98av9h8bwWdh3cMY8V8ZGRr/RLCSLm1GIBsS5uVgJvm6pc7xVb6dflFLGGnodASO/pC7nKEmWDm3QwsDCYWLzUCC1Pf+p9jp/Bl1EbqRZSAmuTnYHm178GCD686kZ4KoVfp3zODbzbF3LX+SULs1Bu8GM9BP/BcATjxx5kL/FRzXfa6pM9x6b00bW5orkj+QQ/8iSj50dPRSb1845ubRfYo8Lx4qGPLfQtgYYuI7XIGx6plqa0NvgaeXMi9dfjNV0BspNdxiNFgWfrvjPeIzKlx396WlMGt82IuqUtBNeAcS07g1c2XSfCwHE1CDiuTl4T4T0VzKY7WdtaYU9j+J5jFcFWwug2F1aE4NAtpHgdRg5y7+1q/PLLp2mtYpwh/h/5gJul/7YrShDsLrHA5LhDCBiss+W6tFgkk7mFlAq/q9biBvbFYxvTVgyWvXiuH+SXvmrvIO8irHa8Ny2ICy72v3WjOcwBrvAPZyMO82myulsrn1yOLdkP5LSr6FaNM9JmQTKlbBq63mF86U11QHUsVvCMuRFvH+iQv+x9Oqv8/4WNol2KQfY/BrMh3DdjBZeeRYz04HK57uZ6YWXsrYAyrTzeYLtYTdDldcOknskidb2YJTqyUbOE0dYg7vPqgXa16BjHj2m9+Yjyc4RX+vywFsZ96LaTekJMqC1Y9sZq4BAnWCkQDlYdBmRkacVr6u1xg/t15LqAtm56YFYhnnuJRVuIXlrj10FTkyClYaCDqC2g+szeOQFgAAA0/Zuit+6/BkY39j8Pw7pa3ErcSjejsclQ9EvcELFBUplmCZNAE5+3sTH7M5/F0ncIZgLJXeYQy22+IVBpL4KhX4/fe+wiKBFhWZWwbz9mRBMq9DBDAQOLleTPvmLw9Pi1Sb1KyXRX5izrEj9fJA2NZg9U1oIKhlVZbrmPxpTKgCbnrkUV/w3yC4w2K8ztakbkb9DXrQnw8+GOobytGF64tjietzytK+FSTPr3ylx7+0CN9HsQzUSgxe0/HxsmwTRjsyD/E/E9/t13Ar4+mDhPXlZyQvbo2ExPkvf/dHDRM+LfGTuqYBpkZVkTdWyCYxZQJzjX6JRM+isjP61KsKU2/SSX2T4ZX8YStqv0Chx3W564Fw6ZME9Hno6B07OmbsWVevQQ+/WH53plPykE//v7zLSRaUMHxifXRSHrBQKfj3a9R59hwp/EG79JckB96TwOG8VXL1xPIHaIZ7bgHdcGDeMCd8TaKA8LUsKZloTY/yUMN9JYh5eQkhiUPQeTnZeHEUJghKUGMq2bs7lKq0bKnqgIqlKY9uMritXCSAph6awyOmPNY6H+XEeeg2vl6/tZl5OQMbRleyMvuaDOTmVsXA4ojpl6FbQCXQwYkwdBf/NMXvCX+5+mb7PqrpQICNjBO5/yIAYNKfMWMdv4OFJz792j4VYa/68inCG6W5IflNem4G9BzCZtiloN0yiCkX7BdWIUNR1hy4GZZ/233KAIEfdbiSEdtoi+ZMmSSgSbiGKkyMdl+zz0p56YhEvFZzmhSesdwSnTx7bX/BvwiUPyT1hDau27c1o1opHlbRm7qEdGTan2egoghiOC40hmDU0+OD1V+ojyIM4gBrnjNipj4EBhFWe7I2cWNk0gxIelf9VmyeErm0wsrBJSZ8Tkc8hmwZy95Z43JbLxKPsmuHO87m51gpcqa75l2mUklhKUkHldVpcn7ZhoG11Mq2LV09ykcdk10EZYqnX+gKswT0quu3YZDFzKV/x5sHmac/LndFYb/Ukt/WFIubXCJfwBuFT+t2ewDtCPE9KjH2q3SKvqVsttIBUeHK8aotW9R+uWq22tC0SxYOhRsR+a38sxLQZ0wgbHblR9ETvZ5Oy/GHMcMxtb3kn1YU6ygBDnx0L18eNQBnfNrbSwrM3WMqnYL2gRiAhi1G93pI44KS5GeFm2ViEw1EU71tV0+jSzpk3gAPjkMcAQBs4L4UF37Ca8/lAyp+whGLqoucqqImKGA2XLJ+GEz4VTmCWrEnH3gBzhTH9wV5uvOEsMPFcHndzmK8TjeJvtoGK/xetkBsjHcUGpEAuCyyjNuAJscd9brOTyt8qAHpg7r1prFJYuFfPwdCzuIwtP0gnHbUSmU5lj5PqPSU38XvPNcyKp6wUWvD9vldXrCVWzuV1PWxIuKC+zeyG/o2ZWN0SGVsKE1B2qbzziWBE4FG+RnNxhf9IFUJbMMx1EZe79SJ6papH8Kn7vjPVajMxc1sbBS7MDM8KZ3kvM6Po5u6lK0UuTkm7OOYMk0mvXMyQyxR7v7EKHQ5eHRVXwWVbMl2WV7opbaAt8RtMzanKtCOMAfH7i+3d0fvXuQW95ilUlk4gyru4g4WGexWOA9LDQlgGgrSkgHJXpG48WLbB9WDn9ySYFiqnIKgc4YycDMg6PwWtUtLO5zkqxrcpR4wPyQ3VLiO83Oyi40WAKqv/ptqWaSpp4dOQq7x1S9/IX0fkzKNkiKtXGHQDFDzo1My8oTRNCe5WI64zoh3PpggllAAAC54IcmuwPo8OT+Yv1NQ4PdsvpZ+FWVyuEx+qEWSl+k4vvWFEnvb6WEcq8r0F9Mi0nw9U7qF7QpptqVV0IDldMt3pjpALzxHphngxJCHGIp7TwywWWVJS901ZOyfpuFMDEYmFEtlxCGpNeqEcBbltVQnmIOgqeEGDSdRqBUOqLoNzasir8cqAXU/FJo/PAn1InUSpE5OAY4LTejmguyblmHqRXfWTJQOxvnkLNtWgrcoJNemBRywcsEX43gcVtQ1uPP5uKY8JZNLe7I3Qprt/VndxLCe4tLNfJvvHvyYyIatF50oiskiXEe4oDzm4PADkr2i/CxAdSPX5rri7CBBRH/TNPt9t6WCoDCidAR+y3R3x7fzuoj4ijTbBQRf7U3faUcesQMoVqdHzc08i5LTCDYDbbx4ye+BgHJRwdzcV0WaFq4zvCVvVcPJh7kVnfg93c+ah9aLtuCjXqYa1Fs7KIqqe5Hb0TGMjyS+CRsPGkuactx6se5fWwCKeE4soAqYEYlt8bWq5kckP2zOOYWTWpi2k2QI6ik8Z1Wn7yu7qCnchsK+ydpEYU4d2oSfzZoS2mlKT+WUSvFcvaZH8TtAQqCDm9VjJZcw/jh2MjkPGqqO3Ee1ztc2XBS/YQ36PqLq7g1vmwgcQKNeunT2ePnXTboC/u4vMfUPaq75/Ov/jj+o1TBejiERFnSW1Ab/GueFKZ2ePniu0SGj4+EcyKp8W9YgA3v8o8o/iW2f0v4kcFPt9w1qxCMdNN5M7r/lHPU4KkTfdL/UooH0aLQUo5bEk+6ORENeArAasByPs9ZvaQZRsP2fnMOY0JIeyhmbYYDcLMgGI6S22TfmO+yHDxT2l4LBO72KgVeZF1xmxG/pnU+KFzsFRkGPMre6OCMhiHTWxK3TfoObE7hlyv+D64mNFeV7S1x/QhevwpkZd1cwT8jsU8H+3uPJJav1auffl6E7OaTjSZ++S8QhPM1/NIxPc5fSnW/pQF3c8qw1zfNZoUh7azvH9jG/uFevT9cl4AAD0BYAFt8eTmN8/ULOeO7/BWur6vbFfo/3ms/5KsVhCH2BNfh2yKA+2b/totC9LISWQpVE60hzzLLI9YjZ8oZv/QEaUsTdf4cMcuqUE+21zj5hSHyKWhgraJi6LXw4lNfNzem9kx1h2e83ZgBaFmwFyQVIEAtAN7GsgRG5No9pFXVra+zFMWiXiGQX28yNDw3dXY4bi+gLLm8+RM2L9Ppyg0L19BH2GJ2aojwEi38xBKOznl3/o4paoG+/ivo/0Wct1aKQY/xRHajHiG5ER+J9oAAAC6BYAAAAWv5CDDjxA2JP6TuMpEsJuAwxOxgypkmyATjW9T/LcviV1ObNtqP7nKOLARC2QDLFJ6+edxjHcELtF6VWYzEDbksgku7WIPWWBKfn7aNgoqeHG9eg+S22V47QwDtCF2NAj7+qR1jTfgBRLKABjVEelC73fWWaYEZTIamz6tAltocf9pLlPzWD/FlCZWxihtNrmUOcPveWUZKZ9mOG4szk6RA8KGUyeffv69wLAkY29N995cd+U8uUZuiPpqv7dCHebK6/V9C8Hz+2tdDMr/8NId6oD8Zk9y1PPL2fhuhuQjof7m1K9gCpDSwNQn7iX19t8KgwSV+A/x/+I9RRi7uBXn+6YgfxIsmqtq8D3/4AD+soAAoeOQVWfUn0xmyL7s20Jv7t+YZyyq6/QhlAKIllTQcEoCiRFExbRJSlEXaHx4LtsL77gzCUbV5Ow7rPrMXKbqB2wR+TFjLo2724CCLCEX8bnarzrRwvei4S7RsGY/O0R/LKO4FnFb3Vv9bnRkBuYMSJl2rUZQnD8agR/kgMBhXL8M50SfQuJVii+sxOBj5lPJiKkBqNVg5ELHR8kiu/D4zA2j7Bx+PLhZPW+fFqGEYV5GyVckZhhnqrPTvttGb9DSVG4T3F+vyXEtAD5BYAAAAABMLKAAAGaCwAAAnVlCz6K7RJqZ5AgnUc6XCecO5fiqo1KcBIsRiN7n8C2abGzP92drDxSnQZvXwBG9jMZeh+yQyEaeWb5Pxyu8qeVdfaL00DuNCTLfHsqqxzZnJgif/QAUCcZLS4oPojfMQDhL5SX7oDfIUMy8gV4zD2cOt+Q505UVcGKmUtHB3f8bMyZXz0MnRZmju8aOaX/o6Wml+5BaMJgjcwPEB+qbRKFdNHNnJDKAH5KuStrLFDx+PlpzWHmPfr9LlkwCCT++7NIzvZ2E2g12zu8VsLx96x0Dtq7MmXQzmvryXHKJnrvyL8azhkmO5sziBjqseYqG4+qEQHCCxH3lP5IvNFJzYEhkJESFAmctX7KcySn5oLFtLLNcMPENzi5Ces9+QaHrxuaiXRHLlZQG0VNFn7ZAcjQgcJYhma4fGXkn4zmhSuaFTSZURY8PJrHK2tpR1bbCi6Ziplr0QKdI4x2JmqhqTIG6tj3tlibalP+vhd+263WS5aBTWS7rxsbSy2q7nx6RpalaGDiD7mNHSzU580BS2YtjrFEb7Q9FU4a8/vcdlly3CjBGyA8aBXzPdP2lmnJ0S8Di3ombbLbXTzefCXH91esi+FGydyEEMv42E3pYYsWk82tR/f4b3V3iZ8ruQ+fiUlakItWik8+K6cP2Wi1mS/peoW+FX8nlvfEfc/WGKEaB3TrTEXMaxdTA7V61gF1xTPXFa1muzL7xh7bu0wmDdVJ2XNgKx1ihaQnBnORW9bu8yK3rd3axPRu/FuBjEbRlpjQQqKZUfFYXBnh9jSTziF7Zk3lr5rU44aty7pqfGrS5pJewjsMiW8VemDsk/T4T6K9x6YpGU1Yxg55TCxzfG8toKu9bTCLAP54X5BPQMpmFgtaOo53cCpBB2U/5bMcqZ9hlBBkJtc3VMxYglPhjt/mMuloD43JmhOVLapROm/kZeKvvJNrF8fAp2VTWyd5SMw7yyh22fhpiNHDZRCaHT6wqOrofJUGU/5AID1y/lJikx8J7OVrT2p2HpjaqHLanoS8+a+N2VZiV2HpI2IF4F6eStgCTWU1KL/UgTtsgwIUzkAFbJrTgc2TEPoXCteGO5nME2Qekf1bXLiN3PWL42Kg5EkygfjyF8CrByjgpdQRGenvHeWOk7QbE6aXMzAL947GVD0Sjso7YsEJhsx3sqPuK8zgFj8CS306OmyLgOYwhKHkX0FAYtJ27jp97s0MX2mSNxXRt51yLQR5OFdeDwTvSdgVZyxcQFAgvhTZNrWPodd+SQM5WB63p5UJI9/wiga8upEUDssMBTEPSNtykAZMS9d71sarOFhI7nY4eVP2gbDoGblVIl7ZuUUnH9YIC5M2STol0OzUG4nRIfqEORW0vgIuFy3Z36vCEpzc6Nwed7T6dtRHTcaFqCuiNssqg3UV/anA2CR9Id1ch69xT8uMTs3utEUBuYxhJocw17w8SDwBmuH+Z8bI7qEFH6rJ+FzFTA2sVxbLdy+YEBfVDsWHG+MVCJxNGDtg8GJ6iZNkkxsTatzrm9C6BX/SPxB/OuSWg9L3Tt0W5CD8aGzi20G2z4dzzvtvnma55mtWGZVD2UpNeYiy1YJDYxEgs8+zIAGFRqKAZ6tEDnsVsXbax6NBp4bpZWCijhxYXAeiWA7SxKOGTpuRP+xAl2MyqdLNZQdZBiKjGEkgJ/XhVqKFVeJjne/CV4NtgHxV6UqZjdcX1k9RJeyjYxxXW2oW9drpfMbRO+AFsR9wIWNfCv4tPE6H2g7wFzD2L2WEnWPLBdhXBlOSYZdc5ZEBXg/XZ7BTlQyrRhpT1xyNkqlmUF0ADud2PeejSPlc6JHBbi8c5eyU6g4Lt2VCvsOW7tKHppPwlU6Tnaaj+d5ThCQzZssKwA7aGn9qAKbU7lMWLlf74eeKBxhqOlPTL3mCSz81D+Deel5W3X3KEO3h9xzPbIMyq4uc3D0GxjiutsP5zVeNuDje9/uTUegLRKpzQIQzbOoOdq2tsr/+7OnGQTvY+tBwxL+EHJrp5SkKytVdnh1LtHZ0TNs23m5aGqJeMC2cSZ9jMLMDe/4WokT1/iNV+qNHX84lPxEasA+0k/QrWzTTNifzBakZG0Qwj3rD7OpCaXbvxjJt5sRbsqvm3fEbaRbvsuWr/9u6eS2qBTpY2utbwwJkvzq8Y8q/RSlP/TNrmQWBgw7tFf4NQ418OvYOSmjFWyJQ2nZjCrUmQMa/R9GxDr9zHOU3haa2uOCvqdHGcbI4ZCfVktHC6PDOE0uONHuYiBLLZfVXwgkaQ6cYDn71PEnnxPXkramwYKEPScTE+1zLnrWCmWUTGv4FT99vCyUcgpySGUp3CuZVvyzOIvcg0g9BfCx5GzISwKGOLEk4zfBodDpTWJAXFPUWZPEiknkexssncn3QHvBjtxCGSPywyMiy15MTtVKeOeM4ZK3YpkjapzX0Nm0nbC+7pTr3CsKlqGF0HPEuKLl0CXpJEaXs9ezoDvJfO/mjxF+2i8g9bYq28hz+wH2pbaUREJ4faIyG/CGoSgkcZfAwDd3km6dLotKEFn7Q9RIG6Cfk8uyFowPV1hJ+lbHiMOcDCDqwTZRax87vSR3x9SM1NAULEhTk3PUH82/Vei9SKOWuiREfNUrU4MiNDccJ+JDHqTzd2J17OOKvGHgZ5EUnT9HG8bxH1S9isZdh95UtUeUv3TCjsSZ0hDIndumK6vUX62s48tvdkjxKagtDzD39CPVjtCTttPcoE3Xj1yIl1+y1ISFWxZWng3Pvv4XD7slNgT9unGn39GZ94T99SZTWkr0sQPj4YgIKMGq5UvF6SX+CkmeH8hw+0Q2vsVwWtXTxhG+a9yi/FfQsSXNSFfXo/odfu4eHcqRM8GnkSpRYy7sm/0eqAf6bo+TSsHjmOWUYrKVl8f2Ixo1RykuQ+hcX7Cm16li1Bj8d/93TgDptd51c/pP0OiDxPm3kSThh7igFtrwry9xsyzdQvzOECk/mO/VtZvkDXvvWOHLqUo8iFgVij15ZotoCD6tyOIkUuIv/D3AtAmkTxmr5NKYYlD/glb/H55fFCdcYtRjcEd1rUL78Q94dXh6EMwcdK+rylkfHKbks3A2U3An8xqwokRjBXIO2HbguBP6mKF731LVvcsbhPxhq8llEF7eFIlN8ndkC++xNxQgKh75IBivOI4chZER6fjwjX1iPfzGyS7/l1YqdvIJcBsJUk35wPEmUyUiQ1a73v67r+1dMJTmqF+kKOoGSSubB8vfeVzEPx+9qZCrI7gIlsm8VUuElXlXbtM8eNE42zREwPfGzUyNKALv+1Zt4h34No2yp/0FOIVwphLsqoRzYw/bhnPpE128jvS9FPmA97a9gszSVtctLsB8oSWv+BycoXlYv2nvnoIhxUscP0a/ZadOeamGXxm5QTCtyWofB2Sl+ZT0ZY7B4WkmqZqWnkrqtsqml9iNj3TEi7MRxfXnRBNTW9TT9miFR4KGaB2/1wbX3SleOA1FnLtnmaKkRv88y3bCse1Kx3EyB3z8DC2SpSyS4RlN7q64TFfObnIx1W8ftaCp6NyTanwf+p83u0Cnh7P2OlgStZNLBKAM7v3and6z9wD0gIQ0PgSfNZj03HTdoJOOYX9uq8vcOzUp9COFFZFN02IWptKEw32KuJNjBf+lIyZXDyY1tuAp7MP+9ATz46i111geWR6Ed2Leou0FU7sPN6f5gLjscicC0MvFuMyprd2+aTjc2dO5trdK7ybSGdRl9se0hRd4Amk1wEkxyVeHhIqW/vZKTKyw3UzQH5hgh6sTP+eNWSmN9Qyw61/sNhdD9qOUu6VEt71EKjWFoGyc3kWfdDTOvBWUdwAqwesHBj+nSCG+Rdxx0yeFk7MdguJFAKhxrFnqBy/lyqgikZRx3zc0oOkDLs5CHJnV81adBC1U7Li7NopJ5jc5ZAD72GBHqH/yjp8nEluLAPvXC9R9fLPFmlkzGk+8fYF90+tUjyYD8pmBQEXWZZAvJpyzyRAodVSntx/32DY9rkJj4AhV1tA53gfh/oVi1BcLnDqbTtBMmRZ0NKbRqcLhvby9+sWIV/VC9na633ogqx+M49S2k7AFhaWHkxGreECkNkvEzhC4zUhhMq2iQWU1XUlMZjpVPfZ2Xps9kyEYlzaCXhlaAtp5+LVYm2waC1nivX6xkFPz7zpXXqItVAbEe0TQQa5eyvOYxSNabUsvvNFlUtGweCttts5ZIALn2Lx0RRT0/0epunga1owXPlLpawSl+/9tRE4GRWW8ndmAwLNkUT905Z83Fl3Lg2KsyTksJcUhfdpHU+R5M9rGBCh4dZ2H2hJV0hmb8rhDnZK8jaQm1uObcj0+d2yI437oM3sn3cM+UlppyXNMhMo47ku6OBYlashvp5sArMuvepGDiVEYIgIw7OLLCOk8A7jTZSDK+WG2jd5BgyvDBQiog/Tk/9flzzFz6o4RvU9/A/A6BvYkBeFiDHJOXlqCac6S3VXPUxP7ECOIwFpLpRwS+/Nqa9exIHqmYaBVLBdBXccYEhoePSevnE8Trv7AP82U+NjXWb1VPnSwuV8NaHfrGe5ph/0Gr9J2fSvIwmUCjGN5/MArODeFCcAgYqgNhIEnH5770zu9EYIOC0Fbb9CZzuoUmRWhx/9tmb1Zb8rBCFMPjbJfirIsSAqnEG+pdunp1UlUyxPHGBqql30F5kHdAU4MMgM5b6ml/YtKiv+jrGGTYJmLgqGqSEe9t+GCVtF8+Sj+xXKOhnWa/oyc+rxprne61WyHlKCFlAJVQ0mQB0rMrCFDPfJ66fzFFInTVlTzb/rzYLe5gdoWmyDJ2k8NxYTJySZotTyKRbp2XlgLsqD4rBoztXKPS6oDVvS/p0c0sKHoRHZhHi8BvC0yMdvUX/7qY7jUxcx+HeFMWknctwFH0TtGdAkp91TMPVib44fWU+13v/uspaDGj15yoBqcs+RPwuiVMCusYv8/fM4qy/+yNwkUlouNDJA4Ky6Hz4x47ry5T/qNCd/YMnTZECSDNXZgrxmFTUVmRiJO557/QW0mH64K39QG1GiZp/4GXK4/xtpC1v0fFKvjtdeAIpWgDgyPojMoQpW3+Fd8cg2SQD2FWvAirTymex8H9t/9C9HR5SRM8vSrYvT56WkHw1Qzcgajoym7tUpBOrVP/2G3bpvoIQj1PcmvBfAqRqbgdzJklLSwUxmE27yqU1Si0x15mHO2oMlYw4534GUujVCE2DdXsvHCkKjunVMFJcjZ07f5jSMYDUF49KmZOVd0G4RABX+B6ypPd+DDZIJFUDOFOnSJtOYnS7vjPr8wea/e7jmtmFCUrNSyORPQUz8u8NwyDzsOkJ9F9sQ2FvoOD4EIK7jKuWdnJVwvp6ogAG1kRMRO0f6p7cnupRYp7Ogkdv/OWagDtMAxaLeU+gN6dmEoKvRTN6bhhb1npoqjy939IcyxZMHoJA7dJPHoKt0XmudkfNNa1biYNjDEtlEp5a1WDdPrTkA8Ydauw2vgf7wzKVxZXEGHEUFcHM/FPGistmL3GIeRe3mJ+3CD6ZRWladnNcAymB9HwK3tbrwOxOAiaF85zfamJVluTZY89ma/3Ivvr15yCRG5CvdqrlNPo3rSlKDQsFyFjZyn3RwWHxXD1pLNdtqNMlmu7avFz+1svJzn9nyK7MzaXkaoxCJ03sz0dfuCg0wx3iojV0b0L0uZiKS4vjp8VRZpDCv4lua90dppBbGMN5xLIQzO4sGSX5MCxDoz6SX4NYzg3pNLGBKk7h/OwoyS4zLqro4FhjQ6J2NLuQ3MeyV4m4Jq20neTKJYULT3E2OEiXi3WsjfQwQedYPm5h5CpxU9hNKVuAzZUWlkPJd2q2W5yAyawrBL7RD3JMJ0qsawktuFe3TUAtLR/Yxz/CLYZNncfujRiDvB88e9BnrMoEqNXsP/CELUilMjRphYULa+8WfUjrBQrhhqzrHT9W71bmBYo6JRD6VCTvXDUNqSZFmj/CEEIkiXGvaHxo1wOymFWcytWvSCB6zRiwIjTw7XC6Og5OWpMlWVo9w2vgXtpqhOVcfl3p5oxGJ3hkC96vJ0NevixYrWw4j7yLhfw3PdtIWPsU72p4pVlAoF2kEQ0yX7GcWvnBv0N66xK/Jm9fLslV5bh0EHmeeRxMHHhPrDMcqdiYcSMNlyj/A5gvoV2OF2kiXJAomFWDpwIQzHkPeuJnh7r5VlcudyCGHIirgz9CQupxLdmQPH8LD5CG3wVR4PMmzxQR1KQmeuj2CCO4NjejHlPMq27YyraAHnRHxs4SLBVRX1HGHivm/uSDNosQNdFI/HWdYM8oDUHabPIps2oSPZ+X7Q7JlsBcqMG19OINld8dJkMLxJ6nahmg/qQ4GCTsVUQSqfXpHnsHq7UKIUhpkTRd/zieid6YYss+epf8vAy8q/GM+BLu54y4pwtr80o+BHqBTWVmY0TgWK1PWY+4rXOU89D87TlXL6qSTbdnD4zP+XbbK4ebWbV4OjIm/WRe3CB+Wbn0pnKVUiqqbfCkOgf3fmab+hixAe4XWrkaqueAQT6MTGDO4Ar8Vu14NsXOT6gPtpaqhW89b95DWT40X4gRyBsqg2OZNcD9hDX4tW2xAuavcfzjl5Oxp+pOtxpT85oEK1tkU/1+hDlGf1MvEFzTLfDhJ5okoZpHnqfUq7iWTUhindCu2kDAzA9JJr95exTPy9Xnd80w8+GZLegosB/HO8O+soMuCjr5S3e3UlgsJeuu5dzPXHQv7eDRG+b+6K7UG8MVsMAJkNS1MbKXfv2xZK/wuT+hgQ0j+sMm6p1ymTmjHE4tCz60t8YC7+UlylxRo4+tPbM4l70AmZqdD3BS2StdPerpjcpQV7473hb8H/g+DNqzubXrX+LDlMCX1+vm0cwcCfP/VFj3KxlmwPKKd9CO6QOBZjzZs0EdKGHIZ2SKDIP7Sb96xb+22KonZkXm0wLi/3wVXsNxxdKmOWuFYd6Yk8RCGzAfhugkA5hq3weVT1hqIwh6MfwT/A+14zipqoq13+P/XTad89IQgnbBRoZTGtkqFKXvcWhRIfo5NuY6185CHIXXP9eG9/KnBg9qQ9KwTn74ZOWsl9kqHMljHFbFUVV3Sn22JIU3AsHMxh8Qw8ytSJxp1QncMtoNb0q0jO/QknFcaV+iSKuo8zm+WEH4sMqDRlL6Df6025VqvqoeJ2RU/ZTWBdlNwqFXr+ebSGmRYoWmbp8JeK/B6z8Jz/R8/SNDj5k4efgr3AIBYwMTrpF4Ub2ipSejM7IhnKzlPcP2zjuYlkM7xYn2tMMA660bJn7JsCATdt3DqiWK1HClWUl9zRAUr5qbPOR+6Gcl/Ft47GuNNYUWZMQi/I59HqhwjOMZgT9UdxBY+hkeLgFh4hwYlvX3Ix0kahcqlZikF2dfwSqWRptRoLu8tY/SeKZHuao6cA+nnO1euPZfacORl2p5DbCeRTIBNKQIkhLSjNM/zEvsLTCg6bjIjdxTx0q/Cokkdarb9ZI6Jn8RATenV/WwIG9CoeLfi+nmxJNRnwAfwkEE9/ewvg8yBSDSuX3cb4TTboEA51CnkSJ1+JO7u2LR0t4kPhvzXGSpniUcKMULMvuHxd9ErTAkcvJ4xwOwDtjUT06WaGulTIlsNsNnXHFs5/wimv7hOR/n9BWzO5aejsWaYEr9KX+r1lJAmSVkIHqZbZUvSjwd8Bu2kmx6ZHlX9pobdkxIp08Y/gBh9T37jCgNtVFP5LFiP6DoKJj79Sp3VwUKNXRsPl6ULVy1S1Aex7ncdF3lrBbuYJOJjqWcUeKfGGlsNELn7u+zZ5m8Fx1PcmdeunHcbgUga62xPUc25L0aW7VNRAEU/0HxEWftVBiwaY48eSNWX9cH+exAl8tObjqmL+PAk5Joy0w+H+sV01IwgVoTeUMtbnzYZn9kvboZXN/8NT9HdfeJQhKyAtdq1e4bpELHyVdprWOBqKrE5SusNSRdPmqEhOxM5L5RVAbvb3uXWS5XC2JvhlrztdzE7UsbQ1gbUHAYFfjGTBsfhpHiO5nGmhgz9b+UvCvM//ct9fbOcNZEDd9ssGQZupZMz5wH/fdzptSQQAStO/hUEIUwE8N0Z9ntYspErz7vqhZdYbheiZKipv7e/MVREG/wsQccEVRG13nGFeVWsU2F4N8Lwi+1WVYaBPdh/XyN21Q5mktE43mC+71ydkijhRR1Sfld180aAvjc30erswdKy2RoovcQYcjn3VZtiuyU5v6SdstLVT4KpeX3WjPPX+mevFBaQ9l8zhRhR8qFzShLP7cJL4tM4u6IvLgWTNuHFVvRVK+wSP50wzO8aEWQC51TdOK1Kn5a7ksGpl/P9aufo0g0AYv0UmBsjmTm8ydsqzLO9wkMhy1Cg827OkuFsofDq2ofhdHjA8xOs2mHWbcFQbH1EVvjP2sYYJH4AZjMD+iUhtlOI23zqRWh7qIPDD52IK1zUzv+zVfVow0qrs1U4eiqPDlA/JdNleoFT/YiTFuJmEth5GHZIf6pNa0Zou8uwb1BzJI2UYxhIe7ZCMhzGedp01R788zrZ6FJKLpdrkaQXlE9+uISrcb41QzzLdUX96WwCnHfox5Xc+f74UM2sg09tziBm3/tMoKYr99Mk3nZ8sBn7eeJ0vIAU4P44jkeKDHpLfqYaQQCLnDYNLHSv+i/m+BjbkW2fGiEI+jynhCo5A6VGhpFEx4owXlNoh1qlQujwzm3gExhbD5VxB1E80rDfF/b3tzQhxuh//qqU6tu/l+wv1Y+XFkgZ876of43uWb/hQXKHkUkt4BwsTATquLP081vEl1wVL8BTkpvltbN5E8t9xKp3nvWzoenLmbr6ipZe9GTq2YCylRs9GzJeQZ41eC1g9PavoDeEbWOTV6bsQV5hkJK5YjeYg9blGxYzoa0FkxD7OrBKa7iSDj8GubDKTB/ZuIFuXRywAsRQuCKb+boV2evcNoc1JbRgxfuYj+BSDMjKxA8cgLJXejwhbYx10B4z8OP4hRztCyiUfP/tCrLSPBDqzlGwtnLK92Sw2bPwX7Dzm0e0Zf66c+SzyD7E76qEUwKCZNXfN4oTIwrzI/gn7sl703+tdJpe6rjqiK+XBNW/j8mrqPCnoEv+g6tywtqZ5X7UV2Q+4Ijwl06sMpyTEvy4rHMGygSj34xXMY9lGn4WDtf5K1E+6vTx+OMu8S5Mt56hLylpKoXaGPmXKkbKq1Bq5oPucUsz1pZOUSEHiXashomB+OylDuStBZS8/HUNlShsIMpZ2/NmEnHB0mNB1Ng/sv4L4QeOTOGB9SBvxL1OaR/bonE4+jsZTg7AAewfLOMcEKWGticFKPAQyZE1eclbhdDtxROcW1BnGIf1QsmyzQMFRRohUA9R68WfkAHFWUN/gvIeCjQTCjhWa0azLUSXAv3+kj/Sjz5H6bS8P6pUmFKdVUgqXJc2BnzH6PK1apzV9/BBIkglR1jBvULStYXQxDtEtlZ2Vb6qpgywDbk04yHP1zkCfzHuQfuHg8ZIhtnFlW2ujqH57292Q0pJDd3IWIgYbZhCaodCLqoo7krAPlAay7/w2IieStltz6AYtBfzzdV0bK67Moiv2615Kl65mWCpuVjutVbmbbS+41OKxgwTE/YTN9SA0FWh5VbpHHpqHukvNwa+amAI4WttFW7SxOSlAERiyXihPZehDq6oBx2tlicoIkHeozPP25UW7gdBTNXbMWv6SuwSnlz52WV0WfHfcLEzB3UM23K/9nRe1D42iiIh3ntSiqnUgAxCNfOjfiZRCYAoJ2N7R7fHCl0QUCm4JLVCCokFeDp5uYfiYmIFWeE/k40GDhK54zbncfrqeBgGMEqcuLWn+BS+ZdC6xEVd8Migu4xVKtqY889Cb89s56GCWUxW5jUsDdzV/+qtLXQ0PV5g+w81XCygznEW7BzOT5Q2XYswNaMxedTaWGId7vP+LyZLkEv1KIX6my/BwGsKtUHmDSyEoR79B4w6/+AvNpCNUChqFupplNh1fPVlQnlnad3rr9dWD/k4cHSysEgABTqGO8x/gJvp/zY9xt7M8yqHppcrZ2yc1QKXNS+1kZIUyJUC3TH1/2ZAcLZLW4pLAFFU5PoEAQxw2/6q/8TfjHXLn66yscaeef7l9lfwTd3ZL96l/axBcbIHzf7zeZ9q4tVnze9akT3Nw9O32M3XiUddWiIyD4NvFF9M620gUK8y/3A3/RVEXkYL3eOazFcZ5BXttJpnqI8I8gEOdFeXdGs1dNzgZdmjicSnvDC9D9z3btRulxnolNn0UFeywXxdELF47K/7p9MgpQz4KgwEtCX/PjHGl4S+3oYgvGeznJnOaEEsoAAAAAABghgRqAqFVgiH5P+MSzcwAItxXklQyzACafKGNAAAAzAWAAAACNWUAAAM0FgAABOrKAAAGaCwAAAnVlAAADNBYAAATqygAABmgsAAAJ1ZQAAAAAA=;" vertex="1" parent="1">
          <mxGeometry x="1040" y="144" width="100" height="100" as="geometry" />
        </mxCell>
        <mxCell id="1uTQNlGQSllIEXjCBKUj-23" value="" style="shape=image;verticalLabelPosition=bottom;labelBackgroundColor=default;verticalAlign=top;aspect=fixed;imageAspect=0;image=data:image/png,iVBORw0KGgoAAAANSUhEUgAAAM4AAAC4CAYAAACrZNMYAAAABGdBTUEAALGPC/xhBQAAAAlwSFlzAAAOwwAADsMBx2+oZAAAACF0RVh0Q3JlYXRpb24gVGltZQAyMDIyOjEwOjE0IDEyOjIyOjIwDh959AAAVuxJREFUeJzsvQe0XWd1Lvr9q+169ulH5ajL6l2WLdkGF2yMsWWbYkxJQslLApgk5HLfJYyXZNx37xgv5b7ECRACIQ9uCBDABVcM7sZNtmVb3eq9HJ0jnX52Xe3NOf+1TpGOQAgJKyNremwf7bb2v9aa3z/7nFZIhIQSSuhXIgsJJZTQr0wJcBJK6BwoAU5CCZ0DJcBJKKFzoAQ4CSV0DpQAJ6GEzoES4CSU0DlQApyEEjoHSoCTUELnQAlwEkroHCgBTkIJnQMlwEkooXOgBDgJJXQOlAAnoYTOgRLgJJTQOVACnIQSOgdKgJNQQudACXASSugcKAHO20pcta7O8nP8J/rs2XwloQtKCXDeNmIwBPQwo6eh4EKNC6Yg+qsi8KgEPG8zJcB524jBQGAJPXkWKv2cEaHGoEJhuJ0Kf0bxE4teNZDQ20cJcH7jpCVNGEmRAAwcJS8rkT4EFGWM+bTGkR99xyfImEjo7aUEOL9RitWz+Bn/FwMhhdA14JJE8UT6kNxhjYz+lzIUYgk18jeht5MS4PymKSCmNwyCSyxNchhyfXT3VdHXH2KoUkXNr/IHYVoGbNtEYyGFpvosGjJpAlkNfugTrAIYyqLn2ioyGFChKSaQfp7QhaQEOL9JYtAQZ/ukngVQAp6TQ2UcODaIk/0GvDBHTJ8h+ZOmj9FnqySPQhdHegfRVFfFtNYcJjdnYRs1kVGhHAeRTWRE9k/iNfhNUAKc3yQpzdzM7C6x/tHuPuw80o+KmwPMRviGCY9MHoM+YDIyAi09QiOD7sESKkNFVIoKl0zP0HE8AU6aIRQGEV5iWRN53hK6YJQA5zdJik17dgcYJGk8HDhSQ9nNwzLrCSSkZtU8OMon0BAYAiWPkJWywCYpUwefVLijx0mFswcxvT0DG444DAw2hobtnnDsDyZ0QSgBztlSqJWiUEU2xSitSKRCOI5doU434vmVmh/iaEcRQ0WSHCkHAelsNgMmLMMOBwkOdGAzR5qagXKNXk9nSVhZtIS0SKWu491oZbunziJVLhRbB4jc2sPASUBzISkBzlnTiPrDzBkwwwJj+HO0G1m/dSrzhhJ/6e+v0oPkjlUP5VuCL98vIpMuYUabhZY6B4adw0A1wPHeIo7Sw3VtWFYGNZIwVs1E/4CPurqQbiCtJjAQ/7SCllIJXVhKgHO2xKoTGx9RLCVQDB9DvFrCpkqJY3k0kcUi3q/hQ4iaZqO3N4RbS5GYYcWtQtLLQNr2MGtKPWa2sQLG9ouLQtZCW0OBVLMSDh0eRMDeONtCiYBycrCCCW4KGdsgEJP6Ngzs0Y+ELhQlwDkb4nQY2ushFoWS/wfKEOnB/x8OrRjB2K8pFxDfmQYXw6ZKT6sVhy1+OkYJptULo2ajKV+HSY1pkSAIbfp0DZYKSIWzMLsti8HeGrrLgJsyUDUdDLhlhHQsZQtmoRXF2DGQ0IWmBDhnQ6xLmRxb4VQXZmpmUFMkjMEqG0sj+mvFPBtGuWQqI9JAp5Yp+naVmD2E72kGD0mChG4DDN9BxrGRtnw6jCtoYImjA6MGUpaBfDqFk2V2WZNkI9B5fpw9EOpIThiBJsHNb4QS4JwFsTDRbGwSUAg8vo7q++xaZqli+hKisf2MzieT/Bl6T/wJLJECjSWSUil6bhgeqV023DANj79PD4NAZIU6Ay0ksIkzQD+TY4WijoVywyx6KUvHsiRVhz4rBzeGcaMzElSCoQtICXDOikgyIAfZ3dkFFvBfYmuLN3oPNVK5tKZkR59nqPk6mi/SgBmZ4y1k4dBnUjYfgo4ZktTyPeSyQFMzZwEMkUQikBl5yVsLRRG0MFgO6eHBNFMwQw3jTIbesbSkY4AqKxgGyoillUDnQlECnLMkBkpo1EjC+MLUigx7MlCIhVMokk1SJOYuVwJUqxVh6Fwmg0ay/+v4Chts7JNNwkxOzJ8rBLD6Bgg0GeRzPqZPzqKpoEsGQsuUXDVDwGpgsOph/9EaihU6TIqkiFcj1bCMQi5PINSuZ9bSwkg+DcdBVQKaC0kJcM6KSMIYAyQ/qvBIYhhOPUp06fYfL2L3bh8dnRZ6Bz0UPeJustgNg1QuawituTIuaU9jydx6TGkmKaI8OoKFusYA2c4BOEENl0xrQmuBrRSSWiqLkhviJKEkJBC5rkLH8QH0l3N0vCzZNb4k6mRTJhrrbZixM4IkVxDFcUwJKgFQSbbahaQEOIjyLkfHY0gdU/SCFxWNMbNaxNg+MfYQ8th7PMQrb53E7gNllPry9PkMfSKFMJWmf5P6pZQUDhzpLWPnkQqef+MoVi4o4NJlEzC5VSGb8TFzShapVB5tJJKCYJCkhoOemoFdB2voOFESCQWSThz0tC3+DDsDXFLXamhpMVHIspFFYCEJqL15TrT4+CQSR8GFpAQ4GBXWZENbsXQxJBPAVFHtDO/0ZhOKpTRe3FDGK1uGcLSYJaC0wslxRjKpYaQ+cdoMmzL8fUUHqGTyqIQFDPoNOL57AK8c3IObL81h9YIJmNncSPxOl98lpndK6KtWSXqZ6OhzUEk10u+RTWWQShimNDbEbPLRlE9jUqMNh35Dp1gH0TnE8SScfUV2QudMCXCYfLI9jArZLzXiQ5sYPyOBSzPwxPhWpoP9pRA/ffYQNu22UVKt8PLsji6jSt8xDeiIDtsoHFzxvcjeqIjN4hrsJkihw23EA08PAuV+vOfyOuLvTnovi/5qHTbuLGGgL4BvB5JWYxgpwUXAql9YlmDqRALM7GlZNGSj+k9D3z5tD2lXwjBwErqglAAHkQfZqBK/DZFhXhDdzYl3bAJNBxn9D7x8Apt20WfsNnikOlXNIl29AZi+guU1IfAsUtGqJKUUbE41o4M6Hh2YHuxsq5C08Go1TJ9cwMyp9QROzj7gy2+SXZOBk82BLadiuQcWqX4Bp0nT73C+Z8EcwJSJDZjSkkHG9CXwGkYu6DDQKTtKjahmoRGXYCd0oSgBDti2DoUJDeXACu2oxsUXM2HQM/D0+iN4a5uDlDVNXM4siRgTPjF4StmwfQcm8XmN1CoGIKt3Pn/ZaJAQpl+hC20UsWI2cOdVAaY21sQ9faSLfssPMGFSiOZL6HNFG+VKAf01koC+CdO2yA4y0ZStQ85htc0FxP6yR8FCJarZ20AJcMDAYY+UwzF6AoUthn2o2PWcwZZDVby6hQSH0UqYUQSOCpSlY/qma3G6GVS5G1na5SdaHlS+TKpcFT0DHkqVVtQ59bC9ASycD6y92sbUwiCqqMPWDgOPPnEcM5rTeP9NedRZZahciPqchYm0Dg3eETyEUc2oiot0InezMk5HTCJrLjwlwBGKc8x0pF5FAcuucoBnN3aj220lacPlAD6pYyYBwYVDADNIMuSNPsyYVcPS+aSC1ZPEydVhKKjixGAZ+/ZaOLBzPxYtzOO6K5vRmuuk46exrcPG957tx87eJpSHyrj8WAkLpkmxji5bMNyoPECJ5aKtF0McF4G2ZBJovM2UAEeImdTULZdIcoR+jTgzhV2HSzjQaZI9kyZVq48+wn9JVat5JGk8khIlrFmaxtVrJqCQqiJDoODkTK7uDBobsWpqgBOLDExoyCFvc8pME/YctXH/0yewq68ebj6NY6VuvLHnJC6Z2g6bVDFlRpJkGBpigEX/MkXuWMpIgPM2UwKc4c4xhgQSJYBJBvgQSZM9u6pwqwSWNBnydi9qQR2xbh42Ow9IZbt6TQPedamJHBnvnAcd+oYcS1poEGfbZI80tjaQvaM7DOw9bODen5VxaNBGui4tnuShtMLuExWcHAjRVm+KV87imExs6EuhmpLKUfGyqeSWXQyU3AWWM6R2cczEVwE8sm0UPPQMcdTegUdgqtpV+ptGnV8gG4ekAln7C2aEWLXYRp1ZkVwxM7QQGGUSWHWk6nGMhZSqwNExIEdhoGTix69049XiRLQ4PtL0/hDnq5E90zeUxtEhj4BjaW+yCkYvT6pz4qRNM/EEXBSUAAdRkH2YHwOSHg46BwwMlS1kbFtq/cNgAkyfs6MV8pka5izJw8lyq6YqTC8Fg97j5Ogw0PU5rPZ5qT5i+iIds0DiJw9FKltvXwkNXoiGqo865aDbzqJcKaF3wEfYbkalCWODMafaNAls3n5KgEPkkSpkBlIdQNqagRqpQ/2VAOVQu6VzJB1qBBhP+XBJRatrLGJuaxb1qIjBXrUseGSbpFk2kNQJDVPLCJI4NqtvdLw0SZ2lkx1s2luk37FQJK3Qtz1USEIZXgalAUNqcLTamMJo4CRZZxcfJcABO7N0LafICWVK5U3ZrRAbu1LqzMFMi4x+dlsHboBcDmjKmSSXHLGJRDOTojZHvGLDjWr9KF3G4lfKaKnzkTctVPy0gK3EICPVMOtacGtKsgNGgjIjciWRMBcf/acHjt7XDVHBtCvaIHXJReh6qBG/11IBQYeL18j2IQCZvgOLYz2cRsN5ZK4vrmoGlwoz4hSIWT+0PLFXQilQC1EkPWxAShEC8YzZZBfVzECe+/IZU7fLSZBy0dN/euBoisONTNLACXVZG4YdwpP0lRRSZgWWGPMWqlWFWpngliZG90gtMwKSKl70fWM44ZIz1EwJDfH3HAwUS6iQCmgqnS4T0GtB6MGi72ayrJ5ZSRbAfxD6Tw+cmMHZLlGBEpuFLZTGgomUMUjv5lE1WI0iSeMa4hru6w3RcbKGxqlp2GmPc2VgBAZ8IxX1JOBj6tqZIPCkeK0/MLHnYD89b0DKdiQ/jrOjDasKW/WjqdAqjUCM4SrShC5m+k8PHEiOADE5x0ckfcWXWv62nIHmfAW9gxkCDlAJAqQ5cxpVFIsuNu/qx6TJGRTMMhxVROBxVnO99CWQ3gR0HO77bIijwMbugzXs3E+SyTEkIqPYQ8fAIWBlnQramrUnLqmj+Y9BCXCgE1vGVht7aM4CcydmcaS/hrKZJkkRSJeMMKiRGWJjy64h1Lf148oleRTYFWCGY2L8gc6fkXSZE30+XnqlG0Nl+mSGYUTgVGzPWPA8H5PbM2hpsKWEQDGYkvE3Fz0lwNFZYIjdBDr0SAa/7WLJlBzW7+lEl6eQM3ySPCQxfGb7NhwvZ/Hsa0VUawGuXFhAW8ZEJoKOF5akEYdJtg1nIQyUPZwsemQOpcR7Z6IPNgHR9lKsAGL+9DrkCXgcJwpHZzIMl9iNt+qE3k5KgAPEJWBCutbFgUeSZeqMPGZOVug6TEBwsqhJibWJkk8GfraAzmIaP39xCJ37urFolsKs9hTq0gUU8mT7hDXdxNA00NiSRlt7HfaSlDLZW2CakpjjBj6mtIaYM6Ug6mLA3XOM4UUNd95QXBw3er0qPAVM/EHrtFcSunCUAAc6eTJ2EohHTHH1ZQX5jI8rVzThSNdhHC+2wCCpUgoH4dlkv6TKAgIuHdixN8C+/UXYTaS+ZQLcfF09Fk3yCDxcQZpFoxNg3rQUdhz00c+zb/yU5KmlyD5avSSDqQ2sArpiC7G6KK7xUA+KEhqdgnMGOh1KCXQuJCXAgQaOEatIwqOkThkkYUiyLJyaxbUrG/HIukGUOEjpkKqmbFhVEw59pWYWkSpkMOg7GKiGSA0ZmH6wiEsmsUpG9opnwbaLWDgxjfUFG8cGPaSURTZOH5YuSGPVwjwyqixZCyyJfFIJudnu6PCnUvbwv5nEmYHRYFIITgFKUnpwYSkBjtBIDIYvCTsCAnFumdKwY83yNnS7PXhp/SGoymR6jaSPmdVJl3aFVLdu+OkQnlUAVx8c3uOiuLiAPDdV42kExNaTGzzMmpDBGyfY0zaAhTNcXHdZAxocThr1dL8Cbj8l89rI3lG6/W0YxvU4QVSdwzAnyRRapLL5w+vWc6hiuZNA5kJTAhyh0fWW0QQCtjdMHiXooY648qZVjSjAxbo3e9FbVqgFzYQJ+usbqNkGXDNAmUz9QtpEx6CLbUdLaJmfIyHiCzM7psL8GQ5m7ezE1HYLa9/ZjlmkoinPhxmkJMtUSSNCDrF6EktSUT9oPzAlfiQDpEIdS4olI7fVDUK91tGDSBJV7cJSAhwgGpI+mnTs3wx52lkg+Whtpof3XtaG9uY6vPDacew7WcNALYvQSUnrKE6VESlhGegvmdi4u4ZlM+rQnK5FkkBh1iQfH78mjUnTye7J99Mr/bDMFvpOFgyCSiRN0tCzDWL/uDVs4wS65W1YRsBND0PtSVCmIc4Gc6SIJ2pImIDnQlECHJzCXnEMUqYMaGeBpMyELDUIDHOI8SdMx5u7OrDzYAcOd5ioDE6EZ+RQtgdhkYQyqi5OHHZx/DgBZAZ3oknRMUkaZUKsnN8skw+q0nIwj2rJQm8pREexii7O4ykRcMopaTTIxaAWYTGTKSGbtdDQmEa+ECLLDdpFndON2Dn+IyOruDJUWkuTCmc5SVr1BaQEOIinmDHpPv/SH1rF85xNKQvgqWdeWKX3KmgrWLhx1RSsWuqjo6OErk4TJ/vob2VIJg/YnoHWnAXDrsElW8RGRup0gsCV1lPHunySSCH2HPPR2duJ7qKBzoqFk4FPql9G0nfM0BXgmAY3dx+Ek3ZRqPeRKbhYWg+smDIR06c0oqlgIGOyiufCC5RkPcjaZf3xBN5IiRvdrRSJPPp1KAGOkBVlD+iCACWRfyZtoEt0x6iRBWNCJ2KGMp6jxQkxgSdATw8FIFU1QWpqFHcfCBlyvRLsVGQHBWaG8FeVLOgDJz3c93Q3OmtT4FlNBEaP3tNlCpVUBSWrDFv6pZky+sMOm1CthRjqolV1AUeDPjy/vg/N+UHMnQUsnlOP5e0FtDRYkbfNlvIGJhm5GEnM0RkJCXB+PUqAIxR1txnuLRO7p2MKpRcAjy9U0TsGByVJLQtEpXKRIiZPVdKkzw2Q/eGT2pSVjjQlV3FXaQSui8ApwzWKmDZvBlrnVrF7B+DVhWT8+2TX1JAP+5A3SNJwI0Jpe0sqWUCAktJSHd8x6TFoFFAitayf1Lt9m/vwwrYTWNhyFCuX5nD5oma0F3IEQS6NoPVaaQI0qY8qjLIWTFHnZP1GYgedKyXAGSZd0a+kJUY82XOEqYKAJAZ3wCFVLVRF+kQWppfTCZt2RXoLGG5KPG2haaKjGuKRbRUcPdSLD13RjCWtZI1UM3BSeThkfly5yMS23V3YryajYmTAPdQNVaMfcmG5MUgCAXG/pcsNzGi8teVnCaisgbGFU4fBMI0XjwfYdCyFZzdVsWrVSayd24iJMmOkSCAiwHoEXksnoerT1b3kEjo3SoAzhrQ7euTfEfHuLKMMdXUoMysXp7ETzZBLSMY8qWGoq8BXGbx+AHjkhW5s3hMQkzdiQWsFCyfQ7k82j+83wCFxsnh2DtObqqj0DaFm1pPkMuXIZlBHUqZZvHk8RIoL4XySQtpVzbYXN4CviJucX+f+0T53/eRsB7Kf9nYUcfTJfhzc4uPGq+uxZHYAln2mcgjY9F1Lz5X3oB0Lidv63CgBzml0uitK54aViMXq6ImjncVhZBNJwgHZREYK+4gxX3v1JJ5a52JvTzsyTh5+zcemPb24+nKFZosrSGsCxIl1eSxYYGLv8yeR8klyETBtyyFApkBwktEdrvKlPVTajyQDe/lIRavQelxpO+0TWEg6mmk4nGlN33TMAqGiEU/tC7Glpxu3XRbi9jXtaOYm1KQScnY3z8KuEeDSoRqjkqpkGNVZUwKcsyCdP+3omWchxCYxODGGVSuTpVAeO457+KfXOnFgE6lFYRuqjWSD0GeypJft6grx1pEQ75iZEXe18onR6VAr52fw8sZBDFVMeKSW+X5KWkzVrF6Zi8Oto3iQLk8rMDi6ExJwyWYyuLOIKhNeLT1rNHRR5mbvNn3WdOCTWlZu6MbhoRwefdxC96Eu3LG2ETMbsqKh8Tgdx4gCpglYzokS4JwFScdmKWKDdvUaPAeUm3cQwxJD797n4gePHcarfXk0eFNkdk0KJ6Wk2jKbUeqzsPn1IVwxrY2+X5M0HJNANX9KFlOm1eGlrSW42TqkCUyuy2ULGdQUS7FA7Pe0tCLgtJwSjJSBDAEsRfaUx0aP6UvCkKt0Sk7IgU/DJDCZcOiYPV4KT+9S2Pejk/jtta1Y1e7DJslk1pqhkmLTc6YEOGdBkkdAKpoUiIoXjWM9Bpnd9XjlgI8HH+nAoa46OPkC7IAbf3hkT4QCIIOHTpEk2H0EOHAiwOKJaZEQnJeWV1mSOjls2NmNPjpmqUpMXc3CqdJvcUcdo6qnWnNBNtkmpqUnsHF7KTooLLKnfPb2uVWkUzUphfDZDjPyaK3UwVMV1HJV9IZpHD3poPOhI/gvt+TxzumkGtK6FH0/oXOjBDhnSab2BAwXutVUGq/ur+I7D3eis6cFYTaPCqlY2SAnVZxQ2oFQs3xUnSoOlUO8sbOGhRNTCK2hKNQa4oo5WWxp34ldJ7qQn1iPCYV6ZDidxnRkxGKNcNPT72JgwEO56MCtOWTj9JLkyZLKlWOzhQBqSr83Q1UJ4KSukc2VYy8aqWP9JLU8+v3B0MCenjZ8//4QhVsKWDavPyqi4P4HhthxIluT2aFnRQlwzoLEDcAeLFKvmJltlcP+AzU89uhRHOluQk+mQAIgQMEjSWH00WfosgZNUk/jGkOkaxUxNFiHN3eauOqyGmZkUzC4S46p0J6p4rO3XoJizYbZYCKVdpG3HGgfW4AaAaBIn+0fCNF5AjhyuISNJ09ie0cVxcE2UscmwJfMhowwvRFlObBCxhlsNioEIlqC4RAg89jfFeCbDx/Axz/UiMtnmHJOPEEhCk4hobOjBDhnQ5yy4pGdYxXpTw57uoF7ny5h/7FmIFeAmQrJNvGQq9Xx0BySPC5KnI0WknSxLXovRxKrHnsPH8T+nQFmLZ+lfXcc+zG4CjSnkzLDoaiAjb1oro61WAFa6+i1OjJI2ul4y+uxvZTBlqMBNm92sXn3APrKFlJWBgFJqVpIa6FjuWwfKZ1rneOpcVWFNHcrzbnYUQS++mwZ//N9dZjZ6MsMUy7e09J0bNGcShLexqUEOGdBEhqtGDBJsnTQzv7d1wfx9FETdr6RGK6KxlJJIvoGM1/QTAwcEGD6YPk1pCsNUGXOd9uPKxbWML+uToz4IKPEfczdP1WoosSeNKc6C7OH8ebPrvBQ/4WMLDSwMBti4RwHH5iawxvbaS1bu/H8/hJ8twFppy2q3/GltW+Vi+YIjCm2ywJXmspXUs1Yd9TDdx4/iU/f1orJ2SKBe1CyDERiDVf1JFGeM1ECnLMhYjovUyaJk8bGN3qw7Y0TyKlptDmTDmXV4Jq0yweOOKxdu4eYswSH7I9MMQ+nVsT0CUO44vICrl/ZhPY0qVE8wSAwYZlWlP0fQirnWEKxr5hz14bLApQ4BCQRletuQo8kChv19Jn0ABausNEwfyoKG4/imZ93YbDGY+AbpM7Ho2OUDF0SzvlwNv0OJ+M4dJysZeGlHTXMbj+B335nA0k+trt0WHTUzHcAScud8SgBDkbqP+P5Z6FuDTic+Ml/LWK0LScVfvIiMVilGXaqiCqPBglTkpvmmTUUaZfPkvHiVH1kvDTZFoOYP7eK229uwsIJDtkbbE9YxKRK0nckGVNP1tHZzEbcK8AcXpH+f1R3M2psIb/C4ZyUMYBJmRAfumIyZtU34/4nTqCjh45pN9LaHGkYYrDNxZkOnIFQM2iNQANpfkNmCo+t68WCGRlcNrUgwVEGmBGkdeoRG2LCIoncOZUS4JxCYQQePZVGv8KM3EUS5ck3+rDnRAFGtgGecQKsbNn0uh+QHWN48O0qgloDMr6JLEmVq5YFBJo2tOX7kQpYnctLwplS8XGZInCIhDlT0uXY12TAFBeu8bBfYvY0AdcJBnHtwjxacpNw/8N7sbHDpHU2wfZNKYQLfE83jecOO6EtEs91AnSRvfT4sycx986pqE9DVE5ema9095+EQcan5LoMU9zPLIgcxTrZU49ysvBmxwBe2HYc1fQc1GhXZmbMBsRYITfXUDANm+wIkxg4izRJmisXA5+4rRkN6aruF+DnwNUyHDQdSyOdps92Z9crVdKDlMuuTVLzPCONCq1k0XRS1T4wC0MP9mNvZz/MVBYV04fp0G/7Lmqcds0lC+yCNh14ThZv7jiG9WQr3bAirytMwcCJJV8ibcajBDhCzCrh8F/Zc0NTso9Z5y/Ryxs3FNHbSyyeImb16FU7RcxH+35AlgFPraadPVUrwHSrWDjbx5035dGcLpO6xA07GrVqpirAGBsiVsN+tfR+i20WYXBTS7FAlzukQg3M+e0BPkS//4MfH8ORoXp4hXpUSUvMBaQsGjVR2SwO6PqWzAIaQgueeq0DSxZk0ZrmHgfDVUhIaHxKgIPYrggiU1yJtAnEunGExY8cHcRbb7m0azcTPjxJjnTJ+Pe4uC2sRBZRGmbFx8y2Im6/vhGTCgO65IDMcR6I63OBm4r70Yz99V91V5dMG+g8szAatmuSymayDURSJVQlXDG7AYPXFPDdx/rQX8nQunnyAkkaxXlxSrKuM64BN+WimsliyyETr+7ow03LW/XIEh7FaFiJwDkDJcABosLpeH8NJS8tYPXH8iQu8sa2w+jrmwWfwFB19pGBPRGWX5DaGY92e98mZiSGbXMGcM1KB4umQDrTWIYTjVhn94NuPXV+GgHUIlWSR7uLj5qAY0WHJkkYpgjcRVy1PIft+3w8vpkkVD4n2daSrMoZELTuDH2vHJZIXeOUola8RqrolUsLaDCGJBE0VA2jerolNJoS4AjF9flMLjGNnlpQwyBOFOuxYXeaVByWKzZssmF4F06pquR6QmVpBycJ5XXhqoUGAadJovVWmI5UPv/8d5xRCiP/acVPKmvCqBcbM71nkqpo4eZ3NuOtg504UsmjSOqly2qaSedS83Wyqq9QI8AXSWLu2NeAAweBJTOrMK2MdpEnNC4lwBEKo0ckDbj0OazI891HLRzon4ChbBcsbxJst5Ek0SDxWz8szkfjXgJ+EW2ZGgEnh3bu9CTtmUzpPiOdZyKL4XzZDEaYGoND+ac5PAdOe+1IlQxJ3VrQHuLK5QqPrOuhLaGVZJ8nNhHnw/nhENJBE0mfTlFMB4casXnHABbNbASkSVUCnDNRAhyhSOJEEXodOc+I12r3gT50u7RDZ+qkTZS0jaJdu8Z9obmOn7NiPIX5s1oxf3Ymiv+kCVi0s6vYatIS4XxJHVkfB0OVDopijOwJdMDW4rVxWYOPSxe34oUN3Si5JaTYq+easA0TVVpjQGtPS26cjidtP9KDAXcyMqYpGdxKyqsTAJ1KCXCEpX1xFcf84bP9YBpkVAOHjw3SywXuPyPNaX1OiSEASdCUPp+m3TtvDGIxGeN1mZRYHrbi0KaK3Nqxs3n0+I5fj5QaAeHYQrSR4Kki5cswMuKgmDLRxoxZDg5v7kPW4bYgKRQ5rdq0IbFRkk4Wq5dk6xw96eFoTxUT2rillZ1InTNQApwxfQY0jHiKGnvVuntd9PRykwtLu36jHjfitA51sZgXltHe0ocFswpRr5xw+P8jO/WvFqc5P6fFrjdPgMMtfFfMr8PrW46gViNd0jalcTuDn8+UyyA4KyG0fBTJFjrQ4WLlBC8aOZK4pMejBDhCRpRaw6QidStA50kfPQMphGkFV1nIBUrPseG+akGazAqyNYKSdJOZVm9Gcz8xSjUD1NsBGkAP6A2r0lKX5cbcKSYmNQZkrxFI0jrDh+uFeAY2D7jybQNVs4iqW4/DXVWSSmU4RhoJjU8JcIRipg6iZ1rNOtnvolTLwc1AgMOvW5JoyXlfviRFKrIT2pvzaOGZ7dIGI7Zr4mO+Pb3L9Ahg7o3giKSc3KBonTYO9TBUwqjPtJIG706QQoV7KTgVVIo5HO9l6wYyxiTR1ManBDjAsAI2khNcEYumr1fnlnlGRaLpvjTGUNLYr2JKVz9kai6mNKekAWDgG+J6VvIYOfrbQTKkSjryhDCUh5xhobEQIkXrrrKzw6rSZlBGxre45IdOk2SMVcSQ04KTRQO1OPSUAGdcSoBzCukcAmIcYqZikfdjV8DihJ6UF7uc2SyYcaTS03YsNBQ4zT92Z19E3CbTDDxpMMKKZEtjNrJpaO2SGaBLFgKuoaN/Vz3ua0DnXvFQKptozif2zZkoAc5pFEqgk51OlYrLLdMk+p+jF3zlS/KjQ6/lyaDmEe6mQ5/OcHS9TIzojMqofnvBoyKXtc6lDiWTu6Ehz815COwGAp63E2SlGUiNpSqXWgd5iTsFlRoCLy+xqITGpwQ445IpXTFrPgHHUtLFM1fxMWgGqNImnAp0GXKNYzo8OCqMyo3VxVQzGU0pkC6kulSCYzeKy6jpdZ/bVHkN8K0KqlZJyhQsI0eSliRU4EUTDmS+IhI6nRLgCI34wjTpYVIsdtiPFoTcVVOhppTYOeKWptfCINB91kJdlAZcPAaBZCnE8R5eq+LpcnreqSvtqUJYcroBnROpoZxZzZ8OqnAMD17gRSXYF5HqeRFRAhyhU3K+mKnoBYdUlXRgk0qWwhBJlophSKGXGTCzBbr5XxiPQbzYOsSw58/QPQwU590FKFdJYWM7za4RHOzhllA8FcHjHtUkhdJhVoZWKUM3fE9AMz4lwAHEbatEjoTiYoaUrhkyVYANaIMzncEajxHtv7pheUiMOeh6GHI5XeViU2lCUSG5SXsgFk4K/aVBBDadKafTsLQMo8RQJTXbYA3NNEhlo/e5j3VCZ6YEOEKxtDAiecMN0A3U1aWlDl/me/KsGqWNbjNKneHsgQHXRGcvRz0acFGRJJr6sil40ula4UTvAHdFgO85dC7xKBMznt0oM3RMUlGzGQO5jI5LIbFxxqUEOELhyB+l+w04tOvWN4Q6+i6zNaOaSN6pGThs2hiOlCwf6xyE69bDttWo473dXjWxXqKMCBNFwvbxrgG64zmJ75gh22RG5LKGHlzFU7b9CrJZAo+tJxsoI4WETqcEOKKeFSFp9GFGlDTZfVFGfdZCNrBQ82o6dcXnsYLaXPYMzkBWKJFNcPBEN7r7K5jYkhFWVVE5AaLpBsNZ1+p8+9x04mg8RW401WSkO58HT2Nz0NcNdJ80ud+7NGvnXgUS+OVGHtIWypLunz7ZNvWSPlST1KJE3oxPCXCi3DQx8VWUyyyqSw1NzQSUQkDqGNBoKGnspyKLiAGWNg24XoCuPmBvp0fA4dZKliSyiOEtRWxKZxNcEEd13CsBONU5wS5nsXG4jS49P3CojFqpAXYmizJLGW7g4YqTWgOP1TTfQc4soX1CXo5hJiNAzkgJcMDQSUm2AM/45I7Lys1Lyv3EFhv5uiq87jz8sCaGNhMPZeLou1kJkCepM+TWYf3+Ci5f5NIFrRNHW0ASi9mOjfJAcbNCpVsznxdejCVNDBytmI0+I+XrpiMBrbWH7LBXNh9FNWyFDAqm86ypCoGEHQg2XNMT9zr3gsuHxzF3akYagoSSn5fQeJQAh4lTUAwd7tNJnLZ4nFrrFOZMMbDjRChCiLOfIW1lSZWhv9ziNkV/ySrAuv29uK7TwoIJ+nXxVplV2dHdKDnUEIP9fKSxxMV2o6VN/Fo8bdoXgHgqha37y9jR6aOYtuCyk4NBpcqypioapJw65QewyQ6aMsnB5CZDZLAfprWqlqDnNEqAE9FIrzIlI8uCsIKMZWHeTBNPbeghyVEvdnQYahAFVhzrgETmj/eYWLclhWkTLJJCg6T2FOgwNkweLiVZ0xZGGkL/umv1o9Wa0fMgsnTi6dn0nmlJEuoA7QgvvXkcg0EWVScg0JfFTst7OSnK4ykMyuOOpLRZGP2YNz1EQ8omUWnp4O6oormERigBjlBci6OT7Rk4vufLxZk9mcDQAOwZMKXXGreIDXiQrUV/efZnQHaQwU3SC1j/Zogll/hYMyMjO3boOXSFKzI2UFj8vI3RiJv2xtkKamTt0TOfVEW2wzZt9bBlVyCNB12D1E7DQ5rWlavWY8AqSx+2lJ+ntRrIOAewZEGDxLBAYOK1J/lq41MCHCaenEbMKBFzZYvr2VQsITxMbTCwbGoaezfTzmynJf2mFnInHPq8qaSMuubZyBFjHuvpx7PrBwhsjZjgFOP8Sj2pWsajs9J2PqagjZ2MLdAJq1pVk9JuU7xjh/sCPP58L6mSk9FPv+2R6pim9We9DByfVLZUiCIBhvvEZbwAsyYqzJpWJxPjtEaZBEHPRAlwhJRkAhhS+GVKV6TAkH+hYLlYPS+Lp3b3oFitwjYz0jqpGpbhicMgkBGHFc5ryym8tHcQE9YrfOSqPOpMOh5PhSbm9NneYbvivAFnrKchCAcJ+jzQN01ryqKTwHH/c/uxs4ML8TJSGs3WmEPAsUNdn8r9oZVpw+bBU/5xXLG4Ac20OXCSJ0tWHgGf0PiUACci3UxDe83Yw+YqnX9mEzvOn5XHgtkGNmw6AUtNk4Z/FTK+fcOX6Idl6LR9jo+crNXjsVe6MbHewA2Lc+KvYy+bMuN+1PgF8dGxjdhxho/Ip4ZjQlGnawK6SxKCx/ayJ+/J9Sfw0rYeuE6bjENMmYaMY7QCV1TNmqm/a5Ga6blDaJ8wgEsXzdJNRtg2434FoT9O59GEmBLgMEljwTh7IBS+5YYdYnyT+KnPAquWm9i7dwDVioJbpQuXIhnlc+oKNyb0dIQ+rMC2m9FJWto9z5Fa5GTwzrkW/a2J+1rbSJoZT4NIOMpDpsZORTs97SXUaxv+ik7/V4YMLsTzL3fhgRfL6FOzYTvsCKff9DzkSP0MQgcVUjErpI6xvy+oceJqN1YsSWFCA6ueJFXDtPTNFm9bApxxKQEOk2TT6C6Yunda3Kef/68TIi+b0YiDc6bghTcq8LJp8ZRxXhd7pljucHDUJOY0OVff4oYXPh55rBPZwMSa+Wna7QtAjS63HYhXzo+SME0VZ1ebww0+QpzqRAiGlymg1u49xD3UGJC2UQ+uqnn61R488aSHvnAyqo5Np8PjEitIcyfsqg3fDuHSul2zwkPbYbkuZrelcZV0IK1JjwK9CCUu94TGpwQ4TCrudxblo8kUM0sDJ6ocmEIMf+OqNuzYfgwV5aDLDiV5st5TaHNDZH0TfU4BFd9FUdXgZXxsG0zj64/24lBvGtetAppSJTiVjCRfimOB4WPqVByp8pHBbKPjM5r8UcCRVtEy1ZqkhTGoeyWQunXItfHAz8t4ch1QDCYh4wwiFxRFrRQQcOlA4MpRuEwaBoMGqDdO4sbLGjCrIdSdrSX+pKFsJdLmjJQAR2hUCyc1xlel/2XoZhZzpzm45sp6fO/5AdSpJtSUTqKsmuxlC1GTUYQ1SZaEslH0Cjg2aOG+J3px5Ngg3nNVAQsmst1EKptf1Qmj/J0gDlqyBAojj5YatTor8pyFgvFAVcimKdJxMii5aezc5+HH6zvw6t4KesyJCDNFFEh9VKGFKgGhZtjyeTNVpt/NkLBKQ3k2sqU+XLUshWuX2+A2hZyrJ7tG9Ku65AAJjUMJcIR+SZAv5Cg6qTvEU9esrseWIy627BhEkM1hgDb0k8R0dY5JO3ogzG/wrByyJVIBT4POo1zzsG5TEcdOdGL1igEsnz8Jk+pt5DjVhQ8fcrmyS6CJ63r4tuh0mlDPXhNwKTMljB2QbTJAKtXRYw42vBFi8xYfB/ubgToXuQyB2C3C87nMIcuzr+GJTePD5jmgJGZsPwWvWMO0lhLe/Y6JaEkPkRC0xbXOP63lm5Z8ZtKQcFxKgCP0i7dVTl3hpE+2DSbkDNz5rgbUegexo5MYm5h5IFVFkVi0rpoWL5XNrQiCqtT4c0xFpZswGOax8VgRe49X8dKGE7hsURoLZuYwu6kGbpJjDmtFkedtVD2qpGqaSsoEiuUKtnWm8PquCrbs6kBHfwauXwczmyUV0iUAVHl2te7Iw1KEdDuevpBhSUJSxgptBLUy6uk8br2RJGA7OzkMAY4kNwz/dpBIm19ACXDOgqT2PizIxGdLlbFsSg6l6/L47qNk75SacdJqRNEuI6MIJMSkqcCXkVS+OSgFZDzRoEIAKqk8imYWvV392HX8JEmdfsyd4KN9UgHTJjWgKZ9ChkDkWIY4EDzi3xrZTz0lH/0DATo7h3D06AkcOtaMzoE0/WYWpVyIitNPa3Mlx67Oz8J0s1IG7RklBA7JLNdANsjCdnNkw3DsaT/e864JuGaxSSCjzwQ8/NOSEoMQxinh1YTGowQ4Z0ESMfHSIhX8sF/As2ZpHQYrOfzgiS74pSkopnNkNwyQKpQmbcqG61Zpxy/Ct8j2CSoyYj3FOWAkEWA78FQbDva52NNDqtieAFnVSZLHQF2OgGdzuoFN6pZCtepjqBKgVFHwPPqe1wonzMJwbHByg/LL0vO5TCDljACTJRx3UucIE73OTQcdAiyn2RjcN80/gpuvz+G9l9F6CNY8nc1goJKqGEY2zXBpRRgmraPPQAlwzopIZeLctMjzFtCuzeB5x6UtqAQZPPDsCRwv51HNMHPXaAe3SGqkxRUcBGWyLUKJ2BsVC5afiYbTetJjtmIEMEmdqrkuBotk45Q9mWHDDTakGQhnYgcc/zFhpVMyXrDEHWjCcsTTOaQIMCk6nkg5NUgSSBFASPIYaVTpd9NWCm6lRH8HceOaBrz/HS1oJLXO48ROpauR4uRVtqkM7kWQDJX6hZQA56yImapKDMXzb/LExEVptp41XVy/pkBSJiDwHMPWcgEpqyATnitVD2SDk81jw/FNOKQ+8Y5ek9QbFeUwQwAZkmrH4zYtQwOEGZ7znXVCKRvoKbJNdDUpz+fhjAUOevJx0/RPm94jbJGNQwC0TJJzIUmwooxkTHnNCKoDyKQ6cMNVzfjwlS1o5uRNzxS7SfyJXHwXqqgSVFeDmmHS4eYXUQKcX4WiClF2ISthLheZcBDvWVWH5kI7vv38APbt7YHKTibbIgXfs2Sgbc2vEeiqsMwyPfe1w0DpmQh1VUdaNdnsiqbnrsFFy6b2pyldjGb5wwuQ/3OaD9f22IGuSuWXa5IfIO/QMXxU/DQsAke6RjZULo333jAdV6/0UYdewpxFamBaxoCYsf9d2rAp8aIZEmXFxdfx6iKiBDhnRQwXqeGMnrH7idScIAXHdCVP7cq5ediNFp7/eSde29aB46UWUo3S4FGbXsqEl+lB6JF0IQkQirpnirPXVTr9hr1fHKi3Qx6lXonUQqWlTBwUVdE4+UBnNEgTeJ4QzUV4FvuRTQETvACZgDOhT2LBTAPve9dkLJ+e0TPmwpJIPMPxoynYQPyPuE+CTAhReipDQuNTApyzIiVN1mPNRRjLDKRxuXhtWfUiW2V5awqz107GnGlDeHz9CRzoIuY2m1Cm3d0NWknhKpFqVpF8sSCMxmyoIQEEZwd4LHUIUKZMQgtk6oEknEa/GbdxqhlKXldK94DjdXHrKst3SH2jBXkKE/NFvHN1A96xtA4zm/g2l8XY51gN97iWXAk5XpTmEx1f6dOV48Z5dQmdTglwzpbUqU91Y784q40duaZfRXMqxM2XN2LG1DSe39iBl9/aj0MDLWS/tEjFTyVToZ3dEruGA6vZQPdqiyUKp1WWyY7iRhla0Cg9TSDqniNJCeYAMT8HTTMkatKcwQOnRt80etGQHcK8xQVSH5uwcHqaVDP+bllnHShbZylwvRGfgXnK6amx56cSl9oZKQHOOZEa5xUGD0kl34Vt1rBkUgrT26bi0qUDeHFbCbu3H8axHgc9pTpRyzhfjLuEpryCBGxCw5Nd37XKcO0uqd40A2n2LLVBUhDHGpU4FlxJ7EzViP3LitQzD60NPZg7R2H1yibMnpqR3DrOlfYD3QFa32o9u2dUXtGvfJ4JaUqAc56IVR9Pit84jlKTRwOpZFe057CwPYtDS31s2+fjzQMejncMoa+fY0JZuGzr8NZvWpI0WpXOm6S2kb3C3UPFvjGreoI1gaDsVWFXG5Ahdawh24sZlyjMmZ7D0gVtmD5Rod50xUVghkOyKp5AENI6fJ6HYwaiVqok6/nXpgQ454nYp+WqAQKDgbSRkcpPtifCWoAGO0TDRBuXTATeeamJ410EpGNlHOoo4lBfEd0DVfSVA1QDByluiliztFoWxfGVmyLgkFqXs5FvaMKUBg8zWgJMn9qMmVMNNGdY1nm6VwDbYpx3ZuZ0JkBoyTFMTtmRpNR4bg6pmgl+zpkS4Jw3YmdwkZiRm/kZ0pMsJJWN2+dK4wva5bOWh0yqgvapDlZOLaCEAo4WOfDpY6AYoFgOUaS/taqvVTN62PT1HAEmmzFRlzeQSodoKdTQ6CikobtxBlLrTT+rHMFEIE4DR9spKq7N0yMYw0T9Oi+UAOc8EafgO2SKG9zsQ16AuJw5kMlBTmmBi3iIuyegyJOKNitHKlTOGmbqWhSC1Blyug28zpfmd11pCB/PUwi5dxqpdAb3gZYiorhRoR+VxUXGfbQgFVk7CXZ+fUqAc96Iy6wLYzxVOmvF0P3JhCJ3bxj1b4uCmNxNR+x1+lxaORIjGlNbHVSGS6s5+GpZBBop7VYjEiQY5Vbm19VIDwVNRvzmMCW2zrlTApzzRCryeMUURm2hdLbBSBheDXu0os+azqienHr2dajCMXPQQiOtvxtGD2PkEKERH3dEukSx/1MEy0jMJqFfnxLgnEdSpzSHNqI4jH4TOF1PCscIFv2XJ75BfM/STkAQqCWW5vtAj+ZQUddOKQVQo6SJ7s6jksDlBaUEOOeVRpU7n7blj7fbnz7BQHf8HPmKOnU0iBqdfKmbfIzGow5cJqC50JQA5z8EJSrWxUYJcBJK6BwoAU5CCZ0DXRDgSDUhz4OJDNho5Jf2Akk0Tl10ykc4agRH7KaNX7tY3bbDa+YEzqitU3iGUSLqP4BHjac/GIZxxntxMZ3DBZU4IwG/KLuXEyGji3MxuUbjmzL678VMenmhXEteK2dpx9f1VObi10ef29jjjD3Pt5sxZZ0Y/x78pwDOaTt1nBGCt+PkR8/JPBMxoEfWHK+RmW74ExfRTWM/tRf4MA32nunYjxlJHBlDUnNls0qlUnqTIvJ9PyqDGKHx6tR+U2cZX1vDGCld4Gvsh1GxHuLCuogMdeZe9W8DnX/gsJrmc5qJgR379mD7rp1oamrCiuUrkHf02Aj1G70Cp7eUHUtKMoellJlu4htvvIHOzk7Mnj0Lc+bM1Ue4yHY7P9BFbl6owcMO6YNHDuOVV9Zh1+7dKJfLSNsptLW2YtWqVVi6dCkc5/RZN3qGW7RJjOrj9psivcGG2L/vALZu34ZCfT0uu+wypFOaT15Z/5qc04IFC3HNtdcgZcWDtN5+ugASR+mdkBjt5XXr8JWvfw0rLl1JjDgbheY22VE0bn71C/Cr2hxhPCZ91GDZ0b8bq49xUZrnebjnnnvwzDPP4JOf/CTmzp03/HungifGfhipQuOpnmcLuHMBJp8RNz/kc/jJ4z/Dv//gB9iyZQtqbg02M5jnywWYOnUqbrrpJnz84x9HQ0PDKUfhfgh6uhtvGqYasZPGnOt52DhGHyO2gWMJ+Mqrr+Dur3wZy5Yvl0c2lcbRzuP48le/gjc3bMDMGTMxafJkLF246IzH+0V26YXY+M4/cCQmpxfJ4wBrlQoqpfJwK1XRw38JaE7TvaF13/iCy2uRhBjvu2MuVDhyjHh9uqNLMPyaYXJfsZDW65GaU5Mdm0F06sWP/w4DKTZk+XmkevAEAkOZI44Q/GKgswp1qkF86vmcep7ynAvU6LAvv/IKvv5PX8PBgwfR3t6ONatXo61tAl33Kt566y1sIMb77ne/C5fO6/d+//dRT7t6bA8dPnQQP/7xj+lQIT58552Y2j5FrkO89vi6jz5/9Qs2iF92vmPuTThyzCDQfOJWK3JOTB5tAAGpnNynwatVSYs5fbbQaH4YvQ59zGCM0+R80wVQ1TASxaa/Ju2Kju0M33wxVjmzyhz/hEYzaBildYXRzJqo8H4YRAyA8Zh7NCPqP7ozJqs3fuDpKsrQGF6nESV/GbQD2rYtSZSnMutpzBB7DkfZDUGo019ET4921NiQj/6cNjrjVKdEDJT4tfGYUPYm+sxAcRA/+tGPcPjwYSxbugyf+8PPYc3la4a3pe7ubnzzm9/Egw8+gPsJIAsXLcJ73/ve4WMePtaB+x54UJ7fcON7NHDEDtXeUJ+nzEVHO5N3a5hBo+swGjxjADW82SgBKlS0p/F1smy5VnwfpI8D0ZTJ7fj4Jz6BKc9MFfVtzpw5I8eGGjluBI7xrh//Dje2N8ZZ269LF8arFl0o8fqMIyl+2cLj5HgBmBphcH0AU95zPVcmjJ1KvHuxoS+qh8ltmMaeoiWNKgLa6T25iaMBYvyC3enU9avRgAn8qA4mHKPy6M/H5xSrjGPXPN5v/rJrFEZl1IcOHcKOnTuQy+Vx54fuxBUEGqaa78IxbTQ3N+Mzn/kMSqWSvD5z5kyRiHFOj2U7OjRA58KbW7yeILpncd6QMWoXP3Vdpxr3Kr7vowEWhR/i56bsqNE9VoZcGQGp0gO99HFN3PLem3EzPfhbvBmxFmDZtgZFJDVHb1ynriUGEEv18135egGAM1Z0IgZO9NqZTmCM7z4MpTkfzznrONGFrq4uFItDJA0c0dPbJrShPps/zeTXF8uEYYzseF093TjWcYy+XxQvU0tzCyZMmICsk5Lj8650NpWQ8U7GN6zK6me1Ks9zuVykq+uxgFWvhqNdJ9BxvIPUIxf5ujyam5rR2taKtGmfdtwqHadCqqHt2Mhmc/Iaq118ziz9ZsyYcZptEkbW2dDgECq0lhSdy+QpkzUD+rHKGIr62NjYiC984Qu0ziycyDnD6ij/7tBQiX43Lc6G/qEihkildv0a0ukM2UmWbC5+zYPrurS2rEji8YiPxeotOyBSqZG5ofF95v93D/TheMdx9A/0C/InTpyESZMmImPTfeD7bUfl3ZGuxtKbj+vRGviYlmlFKrUGb2wfMZiOHz+OE8QnZVp/htY5meyhtrY2fb9YxbsA5eIXxDkw/K9Il9VgGfWRcbxqYnWEWp1i0cvM99iTT+K5Z57FsWPH5CLy7tJAOvqy5ctwyy23YPWK5TB5R4ljQ4DcbItEPzPez376UzzzwvM4RKpMhfRnPnZbawtWLF2CW9feLscJh638U2yr4diiBr/si/Q7P/vZz/Dccz8nZq/iPe++ATfedCMMWzfC2H3wCO699x6sX/86ent7xC2cSjlke0wRr9BaMtIntbWMib+wI+KRRx7BNddcg+uuuw4PP/wwnqTzZs9eJpMmifFZ3H777WOulR/qHmz1BAqbDOm+vj68sWEjli9fSQxmokZ6Ke/gRhQ3Y/Doa6N33p/85Cf4OZ3DyaFBYVC+Zv/y/30ThbqC2EY307Vde+MN6B0s4V+++Q0cP3oUH/7wR3DVVVeNa4u9+OKLuO+++zB37lz8wR/8gWwm8W+xnfsS2WH3PvQw3tq+nYBeljU11DfQOV+NO+74EKx0Lrr3I3YSaxqPP/EEHqfrffnll+OjH/soMgRy/i4/+Nrt3LkTjz76KF579TX09PXIb9mmQ6Bsw2X0nZvX3oxZM2exB4dsJlLRLa06m+bFqqqdA8UuVr54b23bgX/+9rfwzPM/lx1jMum77bNmokRS48iRI/jx/Xuw/rX1+ARdzA/f8cHhC85MwKDZtWsXvv71r+O5nz9Haoghu9vUKe0YHBxEV+dxusk78dLL6/DZz9yFW29Zi1FaiVZHDDWirkCDmYwKPEoM/tWvfhVHCcisRiwhADqjXKdf/qdv4M033iRGbcBkMtQzmQx6unuwacsmbH1rG7Zv24r/QnYIe7riY+/esxtPE3hS6RS2btuGnxAj8CZQKBTQS4AYGho67Vqx+5mBMW3aVFyxejV+/ADZMPffh4DUV1ZtpkydQsyhb22sLg9vBPRgm+ilV16GT8zHn+MdnT1yATtzaENYQfYSU6VcwYaNG7Fr+w5cffU1+lqM49g5eOAgncPTIoVdT9enMmOzh4+9lN/61+/gGG2EjQ2NaJ8yRd47eeIE/v3f/x27d+9BO0kI2VyNscfes3s3fv788yS16zDqFOT7vHn949f+ke71TpGGU2hzYsAWB4qivm7ashnr31yPz931OVx+2eXEBzqSeL58BRcNcHR1loHOrm7887/8izDT9JnT8cEPfIBOfBVaWttIZfAEFPfT7vba+vX4NoGrsbGAm9/zXq3z0ve7Tp7AP33j63jiqScw+5JLcNvaW/EO2ilbSNJUShXs2L0T9xOjvbruVXzlH79ODJvDe2+8Xm6KGPV08zi4KDsxNwiMrvSjP30cd3/lK+jv6cEH3n8bPv/HfyJrYjpIYP7a1/8ZWzdvwkqSYh/96EexbMkSkgYOgb2EF196Ef/23e/hqaeeRCGXxpe+9CWkHV2cZpGK1tjciE2bNwvjXXHlFSQNbyWwT0RHRwemEKOdfq00A+dSGbk+R44cFsB+61vfEkmyevXl9FiDefPmormxWb7iBtrtzPbFTTffhMUE+u279uB73/8+FG33n/vsXZg5dZp4t2bQJsVk0w6dot+w6WFFNtB4rl3DNpEhVdByLF1oqpeIx0lyfue7/4bukydxwzXX4n3vux3z588TNfDosQ489NBDInH3bH8L9ineVgmA0muswrIUjZ1E/NqbGzbh7rv/AQcOHcTS5ctxxwc/gGXLlmvgDA3gFbq3fI9fe/1NeHSP//SLdVi6aAGpdS5trHw/f/2yi4sGOIpsE5+u+E9JPL/w0jraQdrx+bs+ixtuePcYD9zUyROxaP5c/MPf/z0ee/xnuIdAtGTJUnq9XW7YQyQVniNJ1T5lKu763Ofw7uuulwsvRDzEu/3cBQvx93d/GU8+9Qx+eM99WLx4AX1/sjbw2U4Io7mcUaHLQ4/9BF/+x2+gu7ePJNRN+KM/vEtAE4TcA8DEI489Tjv2VsyZPQtf+JPP47KVK+XnhIFagVkzpiNPjHX33XfjGWLsd9E5XX3lVfGZ0y7tY6hcwpo1a/Cl//OLmDxpkryznJhiPIqdD6wOLSfp8KX/9kX86Ef34HnanXfu2IE9u3bjAVKNFixYgHe84x24/vrrMbFtgjgG+NzmXjJXHvUNTbiXJAIz7JUkuebS+kcTf559oHwtgni7N06XOB671Lm9VRBEjgBFEqaTJOGPaSM7iavf+U78ty/8CaaTvRbTRLJB5s2ejeaGetx3771QCmNsVpaSbFPFaVo691Ghj+yye+7/MQ7QZsHxwS9+8b9i0bwFI9p/SytmzpiNS+jc/+qv/xZvbt5CauJDuGTOJUhbkGkSlpXBr0sXDXD4xLtJrXnyqadkIvMta9fixhvfI++xi5I9V3x1+eLxbvyxj34Mb5FI3rhpkwTJGDgddLOee+452ZXWrr0F7yYGtSQzQMcAJKeLbsD0SZPxkY98hET6bmzfsR2vv/GGAIe9cXyD5IaJd8zEz558Av/w5S+TcVvEzTevxR//0WfITmojValC0sjB0c4uvEA6vkGG/6205hg0TDGLMZvfevMtJA2eE0n62quvCnACRG5a+o/Vuo98+MMCmtEevGCU/RZT7N2KnRXz5s3Hn/7pn9ImcwPWrVuHTaRe7Tt0SNQcjuM89fRTuIskyupLV4nnz5NWHwRYtyaOGDbIOc4j90FUVWP4pjBgvEBvJPJSrNaOXk/k+uXrpyJQswTdunWbZI18jCQwg0Y7LLR9xp9lx8lvfexj2EL3cANJ6zGOpei3wsieiX+UNY6XX3oZ9WQjfYy+y6Dhu+v5sUTVcbFLl6+g6/kR/D9/8zd4ed0r2LtvH5aQtBuOB/2adNEAh2XCgQMHcOzYUTSQMbvqssuGbY4ochOpTfoCzqOLMHfOHBwkBtm2dStuJ1vl8MGDOHb0COnSDbhizWphjmBUhJpJbhrdkKVLFosqw0DdvXuX3FSbVA6bdk5Fv5mybXrvCXyVQNPb3Y1Vl1+FPyQJNqG1RUCsB1UbOHL4CBnyXUgT43eQ7fODH/1QvFZsN8iOHYxEydmzZ9F3DtJ5lqplZEkFAp8fSZzZM2eSZJox5pqcKeJ9arCR/82/d+WVV8rjKBnzG4gZn37mKbz22mvYSGrc3X/3t/iz/+vPsHTxkii9hlVTXxq3hzJSZOQCnRbQ5MewpBlxZ8fEmxnb2xZ9xok8b/v37oFLqufcFSsk5Sc+n1h74D9svzY1N5PkuBSvb3xz7DnGJeCRS9mM3NQ76F6XSB1buHChqMWyIlJDeSqE/k4gEpDd8SsvXUG27RSxi/fSehg4hnV+WP6iAQ5Td/cJMS7bJkyiC9o0/HrsZhaK3Kzsz59CahffUHZFMvX3D6BUKmPG9OkSPdffHf+3HNKd2W3J6SldnZ2ourVI0igx+F988QX87Gc/Fe8Wu4XZjdrT24MpE1rESxMtBgMDA+IS5ccDDz4wHLPinVUG6Zp6pAcvg4/PxjgPkSoOFQU4/NkqAa2xsWnY0fDLaNxgXxCIZOXf4AwCflx77TXisfvf//qvYoTfc+89mD1rFnKR2ztObNXhgrGZEfH5KXFEBNqti1MSL4fXo0HA3+PrADqNgYFBOeaUKe1kvGfGrHv0F3n9rD5L554zZE+Mvo99dI+ZR9jhk5OQxMh69e/zOvXsoXw+Ly7vAwd5Q+6Ij4TzQRcVcCSyzzfAGPHTM0NYElPQgU3Z/TjKPMptGccudAawIQwbeMH4v6Eta5E6cXA2ECYMho1uvgH79+8XfeGKK9bgWEcnqQi78e1vfxv/4y/+jAz8nIzXYOIYBzMLxw/ee/1NoppotcUX92hs4LJrmo1iBgkzSjodda7hIJ7S8Yj4nH9ZzCF29Y7Jdo5UTETueVbJ8gSQj5K6coLsjO+Skc6es64TJzBzugZOrAIqFe/WUWaDiv+t37dHZVKM6xzgb/PGFg7nSAiQ+Due6w67/E/NVRvzPDj7zF9dRsEACYfvlxwHugZs2BxjKWTobAQB9Flc27Oliwo4zS0tclHYhdvPzZUx1v0pNy/U4GGG5VgNA6uFvsfEgUIOkvb29tLO1Ke/FN2P+EbF+rhLwDp54qSI9RYyKDk4KLs2M7zs3Dbe9a7r8Cef/xM8/9KL+Ou/+7LYMg888AA++fHfIeDqphkNZNzGQ6LW3roWixcswi+jKCw8/EyWaPxqN5Sl1r69e/Hyyy9LRgA7AEYCzZqhqp4rGcWXkhF9Lxngg4NDY93bUcqKbBwYCZyOMKJOQ+JrXYtsoPGo6rrDn4/BXFeok2Mdp3tUrVWRTWdG0oiizSt+zgHMeFM8E8XqZT1db9Y42B4ulUvIZqINaCR/StuF9M8inSu7vR1baxeyRv4d4+xBeia6oCk38s9oB4uT+8dkJ5+ye7Evfvr0Gdi0aTPefON1rFiyEKZl6p2bJInewfXn9+7Zi63btsrx2d5hYjdqGxnXu3buwOsb3pRShtFqTQwc3oV279mFHdt3kC3jYAYxHnuqXJI6LoGmRo/LVyzHZ+66Cy2kgzNTvrJhMx57+BFSd36IZYvnYcXK1XRMj27IJLS0tYlLmEsSGDh8kyVIx+Pao2RS/u9IxzGkyBZqaWgc3oX9ULO5znE7u8srzFws4fvf/z4efPBBUsmuxbJly2QD4WAmbzBy3OjaljkCz5KbAW6NSKkQI6kr8X0JI6ucr5XO29OfL1eq0ftxQqvO0yuWSti1Z7dcN36VQwY8L34GqYQWqZ6HyL7YTJJuzWWXSxDStq1IuujkWmbszRs3yn3xlb4WTNLEnl9D9Ii+M3vuXDgZ7r19DBs3b8UN116NGvGFeE5D/c2YpTZv3obDR8hmbm6U7HxZf8CpVmenEv8iujApN8MpSpphLLpAtrgWMQbop4rNlqZGXLV6NbZs3IxHH3kUC+fPlWi1Gd08y9bLZf353vvvI3XqABYuWojVdFOYJra24R1XXoHdO3bgkYcfxuKFi3Dl6jVj0nzYOD/Z14sf/Pv3ceToEXEwrGFHBLSnlQHExvq8OXMxmfRoBkF9Lo9P/c7HcZAYZPvWTfjWt0hlmzaDJOQE+cwVq1fhe7t3iit8ydJlWMkBRENPWouHn2/fvQtf/vJXUK2UcRcB8rKVl8rrHCuR1C1Wvc5W6hBD1dXlxUB+9tlnsW3bNgk0fupTnxLvHFNcfcOS9+fPPEu77yDmzZ0jKUfxfpshxubfr1VrEmuRazDK9Z9Op2hH15Jiy5ZtGCpVSP1LY7Rz4PkXXsCbb74hzhRTjWRTL1uyFAuIyTdu3IR7fnQPZtL1mjBBx71UFLn3XB8PPvQwtmx7SwDK115F3zdGPdQotlk4bx7WXH65BFzvv+9ezJ07C9MmR7EuFZ+5gZ0kje+77x4Mkl16/XXXSKhA7KHz1Gn+vANHEjRl4KtuqOcQo/af6MZTTzyBpvoG0TWH0+Ijdyr/XbpsCSZOmIRb196MDW+8iZdeWYe/JUbrONktqfKcDs9qFEuJh+hiP/7kE8Q8BXzw/e/HjGnTdbCSLjxnAmzetAnrXl6Hu//ubnT9zm/jcgJGI/022xd79+0h0N2Pp598CvlMDnd+8IPizdKDm3SswIiMee7NLDYUrXHBrOn42J134O5DByUA9+MHHiRG/T8kOfL9t9yCrRs2YsOWzfjbu/8ev/Vbv4VVl15K66tDuVzBtre2kXT4gcRZ5pBUDCJ9m0kaq5tWlO19ltc40AzAaUcbabfmICKrYuyouPnmm8Vdz6ofJ4Fyeg2nCbGq9C6STK3NzYjrkOrp+tWRAd051InHHv2J3B+f1DtWWzkGlCO7bSWdB7u4GRzf/vZ38IEP3Ibm1hZS+Yp46aWXJOhao3NkZwvf0zjGxJnWd3zggxL9Z3CxlLiDrvX8+fPlfU6j+imti8safHb9Wxp4QeR4kQBopALHHUyZmhoKuPNDH5QsjJdfIBX6LwN89CMfIf5ZJtrDEG0Qm+j+/9v3vkdr3oAF8+bijttupXud0d5QSfq9GFU1pTO7mIRB6HGIDO2/+1//r6gLbNizu1f5I3Uf7Er9n//j/8bEd+vUmLs++2lUvBreJBH/l3/zvyQGwCoT56ux+7nj2FHavSbht4iRb7np5vhnxRCdNWMmPvP7nxYdiJnqL//6rzCTXmsiaVaiHfPYscPoOt6B5uZWfPITn8Tam+Pv6wgcr5lTT7iKlaUFG5a6DMHHu991PXZs2y7R9h/88D5ccsk8XHfdtVhAquLv/96n8OVv/As2btqKffv/SpIz2S0+SHr2oYMHcaK7G5fMnoO7/uD3CFSrhi9XlVQgrldi5jPOcuamVrG0TffpT39abBBm7h/+6IfCzHFuGjNnZ1cn6gv1WLt2LV2rW7TxHHnR2ie3413XXCcq37O0g2/ZvEnSbG677TY6p/mi0kpsiDahl8jOu+dHP8Izzz+H1oltkmC6nST7vEtmY8mCawWgPts6cQk6Pd5z43vQ2XEc32GV8pGfYN361zFr5gzxLLK3ksMPDFDO8HjsoQcka2G0vuqTalel9XhRKbi8xmr0Zavw+c//If75G/+Ml198Cdu2bMUsUg15E+jt6RMv2lBpCPPnXoLPfJqu98oVUezLEFXzfPgHLkg9jqTt0+paJ0zA4qXLRuyL6CO8s0SKm1wIBk4hKrDik1qxcjn++3//C9z34EN4kXarY0cP0861U1zSLc1NuObqq3Hb7bfjRtpBU3bkxuTkPVIH2Yjl+g3Ojr2fJMvzL7+Evfv3YeduT95vKBRw9TXvkt362muuRZp2yrgen3+fbawlS5bIrh0nE8aZxtlcDnd86A70Dw5g1649eJ3sMI4XpdJpXHftdahvaROVadvWbdhHah0nlrJEYkP59tvW4v233orVZKiPvnOcUsNxjkuIeYyzVNVG9xHg7/35n//5cPoKx3A4G5zd7A0Sz7pCkkcZDJySMro0gD17nB7E3rgXXnxBXOR8L1pbW8V+EXfy5An4oz+6izaeAraQ7Xno8AHs3rtLNIB3XHUlfvcTn0CVdvl9+/ZhVmRHMLFmwcfnStrJ06bhfrIPd+/ahQ0kufh2cfzmxhtvwKfofXYxH6D7y+cy7AinD7FBv3LlSron04ePG9tet5BmwSGHhx9+CK+//ga2v/WW2El8vXn9Vy+6Gnd++E6pU5LjsZdv2OV9MSZ5MkBI3LOO/+5336BtFB5B7mnPizbiQjJUR4qLTKkHsYerIbnL/uwZ0/GFP/4cPvT+27B/335Rs/g4XBIwk9Sdhnxh+Pv6Z1UU11ARAKZLOv377/gg7UAHhSn4gvNFnTFrBprq6iWCXiNJYkkWryfv/+7v/i4+/OEPS+JgHLln4pQSNrxn0Lr+ghiVvVOWJElqo9Sl91YuXkS73JdIKh7GUTJKq1LRaEjSJRun2Sg/bTTzclnzFVdcIUzNAPxVy635LzsFeN1cpMa7eH+/9kjytRLJRxIoPuboLARmbv7MZz/7Wbzvfe+j7/WJN3GyZFEE2gNJ/y0jO3LGl76I3Xv2iMeSJf+kSZOxmM6XywL4+de+9jW5FhlRiUY2HI5NraV1XXb5ZThIkoA9oazOTZw8SaREfY7U2VoFX/mHvxeVNUdSI+YDBjs7ZrhcYTxXPW+QvAa2dY93dEiuH9tlnBT8/7d3drttwzAUluwuWIbebfdDsWHAbodh7/9ene3mUKRMKUoTaHHhFecDjCSwJVk/1B9JBXEjnC0NMHpO2Wpgh7ZqyNbhIfXej6d59ePHTzeFQyH/VeESpd5pyD8MD+Hb1ye5auTsAplT23IyaNixaPBPp/UPriq18Dw/yyiSHKFidohCA4biDOT1WFgFHNumMPe3RTieEae4mIxDj4dj+Pn9h1xliouYhYz6fgbisbj8qTrXqL0wcaHB27ZrkbZss89np9zgN94dUyeMfN6gVDqhEOSPfqGZh8vBn1+/Q82sU23zw0HjNMXspL4w0uHBD+rzl6pM1OkOo4Tes44QYVEXuADKOSuXXedyPK2dsEmCqwZTWO9DtHtHNryeLPTm1KCkKGJ2ewlR/6vFO4clG7EPuRddGz8WjFNucLPaOgVdyIvbrE99WTXgUnknAUlmNqsOAQKH3TWcxDOr4tPCWLr4rLXZKe0oU41JjmcazrwOlzm5fGMhOqh3o7ki10Lj02ydLXCJOo7sVmHnHqi9mY93WJZmPKNuTCxqoOndzuU76jKMq+7J+y1JWU2i/PSWDNnT01yWg9morbZ3s3Z8ZoBr4W20shErlft6UGF9PoOV3+Rs0PIOqgrNvZ3YJO6wCbP8x0u0gs2mFuorLrqNMTeUusH4ipf7wWut0zNeY1yE1UK1gpetzGgbqEnRl7Zc9bQdk+ZQTvt83F6YrPJGV4H+WVunpMY0Z+27Ta1bZiVe2Ov4biELXYxJB1Ofn3bBlKVIz62brPH7KWXaEo5ZO295GYq8t60L/KEfUd9RZgZDOW21Ud3H4evCWzrUwmPvbFYVW7OZ5UA24bDMhrIgX8vcUFX8JUPHZthqBDDJsF6/5YiV4opnUxmfjq80+3wtD+n+WPzeiiLuxmh0S7h6lACXzkPw3y2P1/JXl18rjdIYNzafad33tOpwCzYRnBiGq0+8Ff7f0C6n+3bvQ94HG4048R/v3xMKBbk/Gx3WsafGurf3Ie+BXVlHE/K/QMEhpAMKDiEdUHAI6YCCQ0gHFBxCOqDgENIBBYeQDig4hHRAwSGkAwoOIR1QcAjpgIJDSAcUHEI6oOAQ0gEFh5AOKDiEdEDBIaQDCg4hHbwAw+cQJKmctawAAAAASUVORK5CYII=;" vertex="1" parent="1">
          <mxGeometry x="1037" y="279.32" width="106" height="94.68" as="geometry" />
        </mxCell>
        <mxCell id="1uTQNlGQSllIEXjCBKUj-24" value="" style="shape=image;verticalLabelPosition=bottom;labelBackgroundColor=default;verticalAlign=top;aspect=fixed;imageAspect=0;image=data:image/jpeg,/9j/4AAQSkZJRgABAQEAAAAAAAD/4QAuRXhpZgAATU0AKgAAAAgAAkAAAAMAAAABAAAAAEABAAEAAAABAAAAAAAAAAD/2wBDAAoHBwkHBgoJCAkLCwoMDxkQDw4ODx4WFxIZJCAmJSMgIyIoLTkwKCo2KyIjMkQyNjs9QEBAJjBGS0U+Sjk/QD3/2wBDAQsLCw8NDx0QEB09KSMpPT09PT09PT09PT09PT09PT09PT09PT09PT09PT09PT09PT09PT09PT09PT09PT09PT3/wAARCAHaAdoDASIAAhEBAxEB/8QAHwAAAQUBAQEBAQEAAAAAAAAAAAECAwQFBgcICQoL/8QAtRAAAgEDAwIEAwUFBAQAAAF9AQIDAAQRBRIhMUEGE1FhByJxFDKBkaEII0KxwRVS0fAkM2JyggkKFhcYGRolJicoKSo0NTY3ODk6Q0RFRkdISUpTVFVWV1hZWmNkZWZnaGlqc3R1dnd4eXqDhIWGh4iJipKTlJWWl5iZmqKjpKWmp6ipqrKztLW2t7i5usLDxMXGx8jJytLT1NXW19jZ2uHi4+Tl5ufo6erx8vP09fb3+Pn6/8QAHwEAAwEBAQEBAQEBAQAAAAAAAAECAwQFBgcICQoL/8QAtREAAgECBAQDBAcFBAQAAQJ3AAECAxEEBSExBhJBUQdhcRMiMoEIFEKRobHBCSMzUvAVYnLRChYkNOEl8RcYGRomJygpKjU2Nzg5OkNERUZHSElKU1RVVldYWVpjZGVmZ2hpanN0dXZ3eHl6goOEhYaHiImKkpOUlZaXmJmaoqOkpaanqKmqsrO0tba3uLm6wsPExcbHyMnK0tPU1dbX2Nna4uPk5ebn6Onq8vP09fb3+Pn6/9oADAMBAAIRAxEAPwD2WiiigAooooAKKKKACiiigAooooAKKKKACiiigAooooAKKKKACiiigAooooAKKKKACiiigAooooAKKKKACiiigAooooAKKKKACiiigAooooAKKKKACiiigAooooAKKKKACiiigAooooAKKKKACiiigAooooAKKKKACiiigAooooAKKKKACiiigAooooAKKKKACiiigAooooAKKKKACiiigAooooAKKKKACiiigAooooAKKKKACiiigAooooAKKKKACiiigAooooAKKKKACiiigAooooAKKKKACiiigAooooAKKKKACiiigAooooAKKKKACiiigAooooAKKKKACiiigAooooAKKKKACiiigAooooAKKKKACiiigAooooAKKKKACiiigAooooAKKKKACiiigAooooAKKKKACiiigAooooAKKKKACiiigAooooAKKKKACiiigAooooAKKKKACiiigAooooAKKKKACiiigAooooAKKKKACiiigAooooAKKKKACiiigAooooAKKKKACiiigAooooAKKKKACiiigAooooAKKKKACiiigAooooAKKKKACiiigAooooAKKKKACiiigAooooAKKKKACiiigAooooAKKKKACiiigAooooAKKKKACiiigAooooAKKKKACiiigAooooAKKKKACiiigAooooAKKKKACiiigAooooAKKKKACiiigAooooAKKKKACiiigAooooAKKKKACiiigAooooAKKKKACiiigAooooAKKKKACiiigAooooAKKKKACiiigAooooAKKKKACiiigAooooAKKKKACiiigAooooAKKKKACiiigAooooAKKKKACiiigAooooAKKKKACiiigAooooAKKKKACiiigAooooAKKKKACiiigAooooAKKKKACiiigAooooAKKKKACiiigAooooAKKKKACiiigAooooAKKKKACiiigAooooAKKKKACiiigAooooAKKKKACiiigAooooAKKKKACiiigAooooAKKKKACiimPKkeN7quemTik2lqw3H0UiMHGVII9QaWnuAUUySVIULyMqIoyWJwBVf+19P/AOf23/7+CgDGm1e7XxhHYCRfs7dV289K6SuImuoD46jnE0ZiHV88Dj1rq/7XsP8An8t/+/gpkJ7lyio4Zo7iMSQusiHoynIqSkWFFNZ1RSWYKB3JpEmjkzsdWx1wc0APooooAKKKKACiiigAooooAKKKKACiiigAooooAKKKKACiiigAooooAKKKKACiiigAooooAKKKKACiiigAooooAKKKKACiiigAooooAKKKKACiiigAooooAKKKKACiiigArl/GPW1/Gunrl/GX3rX8a5Mb/BZ04T+MjT8M/wDIDh+p/nWsKyfDP/IDi+p/nWsK1w/8KPoZ1/4j9SC9tI760kt5s+XIMHBwaxf+EJ031m/77roaK2uYtJnnsui2yeK49OG/yG6889M10P8AwhWm+s3/AH1WfOjf8LAibY+3+9g46V2NNshRWpV0+wi0yzS2g3eWpONxyeeatUUUjQwvGf8AyLNx9V/nWD8PP+Py8/3F/ma3vGf/ACLVx9V/nWD8Pf8Aj9vP9xf61S2Zm/jR3dFFFSaBRRRQAUUUUAFFFFABRRRQAUUUUAFFFFABRRRQAUUUUAFFFFABRRRQAUUUUAFFFFABRRRQAUUUUAFFFFABRRRQAUUUUAFFFFABRRRQAUUUUAFFFFABRRRQAVymreIL2z1KWCIoETGMrXV1A9rbyMWeGNmPcqM1hXpzmrRdma0ZxhK8ldHH/wDCU6j/AHo/++Kp3+qXGpbPtBU7OmBiu7+wWo/5d4v++BXN+LIYofs/lxqmc52jFediKFaMG5Tuux30K9KU0owszNtNevLG3WCEoEHTK5qf/hKdR/vR/wDfFbXh20gl0eJpIUZjnJKg961fsNqP+XeL/vkVdLD1pQTU7KxFSvSU3eF9TI8O6vc6lLMtyVIQAjC4reqOK3ihyYo0TP8AdGKl5r0KUJQhaTuzhqSUpXirIbtGc4GfXFOrPOuacHKm7i3A4xmr4IYAjoatST2ZLi1urHNeLtdu9GNsLTy/3md29c1zn/Cc6t6wf98f/Xr0O4tLe6x58Mcm3pvUHFRf2TYf8+cH/fsVomrambi27pnnGoeKtQ1Oze1uDF5b4ztXB4qtpWtXWivI9rszIADvGeldt4ssLSDw9O8NtCjgrhlQAjmsPwJbQ3N1dieJJAqKQHGcdapNW2M2ndK5X/4TnVvWD/vj/wCvV7Q/F2pX+s21rMYfLkbDYTBrsP7JsP8Anzg/79ilj02zhkEkVrCjjoyoARU3XYtRd9y1RRRUmgUUUUAFFFFABRRRQAUUUUAFFFFABRRRQAUUUUAFFFFABRRRQAUUUUAFFFFABRRRQAUUUUAFFFFABRRRQAUUUUAFFFFABRRRQAUUUUAFFFFABRRRQAUU1+EY+1cn4Pvbm51K8WeeSRQuQHbOOaBN2djrq5fxj/y7fjXUVl6voy6r5e6Vo/Lz0Fc+KpudNxjub4eahUUpbDPDP/IFh+p/nWvVTTbEadZJbq5cLnk96tVdGLjTSe5FWSlNtC01/uH6U6mv9w/StHsStzyiUD7Y/A/1p/8AQq9Wi/1a/wC6K8qk/wCPp/8Arqf/AEKvVYv9Wv8AuivPwO8j08x2h6D6KKK9E8swvGf/ACLNx9V/nWB8PP8Aj8vP9xf6112r6aur6e9o8jRq+PmA54qjoPhqPQpZpI7h5TKoBDDGMU01axDTckzcpC6g4LAH3NLXkPjFmHjO4wzAeYnAOPShK7LPXqKZD/qI/wDdFPpAFFFFABRRRQAUUUUAFFFFABRRRQAUUUUAFFFFABRRRQAUUUUAFFFFABRRRQAUUUUAFFFFABRRRQAUUUUAFFFFABRRRQAUUUUAFFFFABRRRQAVS1HV7TS1Q3cmzecLgZzV2qOo6RaaoEF2hYIcrg4oE79Ci3i3SShHntyP7hrmvDGqWumX11LdSFUkX5SBnPNdI3hHSQhPkNwM/fNc34Y0u11O/uorqMska/KA2Mc01axm73R0/wDwl2k/8/B/74NbEbCRFdejDIrG/wCER0n/AJ9z/wB9GtlFWNAijCqMAUjRX6jqyta1uPRliMkTSeYTjb2xWrWNr2hnWhCFmEXlknkZzms6vPyPk3NqPJzr2mxn/wDCcwf8+kv5ikbxxbkEfZJeR6iq/wDwgsn/AD+j/vig+BpACfto4/2a4W8V2PQ5cF3Zy7uHmZ8cM5bH45rr08bwKij7LLwMdRXIOmyQpnoxXP44rpx4HkZQftnUZ+7XPh3Wu/Z/M6sSqDS9o/Qtf8JzB/z6S/mK09F12PWTKEhePy8Z3GsP/hBZP+fwf981saDoDaMZi0/m+Zjtiu2k8RzrnWh59ZYVQ/dvU2qqanqdvpFjJd3RYRJ1KjJq3VPVtLh1jT5LO5LCKTqVODXacBhf8LF0P+/cf9+TXn/iHUrfUvEU17bFjC7IQWGDxjPH4V3f/CttJ/vz/wDfdcF4g02HTPEMtjAWMSMqgscnnGf51rC1xM9Aj+ImhpGql7jKgA/uTWtoviKx18TGxMh8ojdvTb1//VWJH8OdIaNW3z/MAfv1s6F4ctPD4mFoZD5xBbe2en/66h8vQZr0UUVIBRRRQAUUUUAFFFFABRRRQAUUUUAFFFFABRRRQAUUUUAFFFFABRRRQAUUUUAFFFFABRRRQAUUUUAFFFFABRRRQAUUUUAFFFFABRRRQAUUUUAI/KN9K5HwdaXFvqV408EkalcAuuM8119FAmru4hrmfFfit/DktukdsJvNBJJbGMV01edfFH/j5sP91qibaTaOrB041KyjLY6/w3rR1/SVu2hERLFdoOela3SuV+HX/IsL/wBdGrq6qLukZ14qFRxWyYU1/uH6U6mv9w/Sh7Ga3PKZf+Pp/wDrqf8A0KvVYv8AVr/uivKZCPtj8j/Wnv8A7VerRf6tf90V5+B3kenmO0PQfRRRXonlmR4m1s+H9Dm1AQ+cYiBszjOTisjwb43bxVdXMLWYg8lQwIbOc5/wqT4lf8iTd/7yf+hVyXwf/wCQnqP/AFyT+Zq0k4tivqer15D4xDf8JncYViPMToPpXr1RNbxO25okLHqSvNSnZjHQ/wCoj/3RT6KKQBRRRQAUUUUAFFFFABRRRQAUUUUAFFFFABRRRQAUUUUAFFFFABRRRQAUUUUAFFFFABRRRQAUUUUAFFFFABRRRQAUUUUAFFFFABRRRQAUUUUAFFFFABVSbU7O3kMc1zCjjqrOARVs9K878R+BNT1XXri9tza+XJjbvcg8D6VMm0tFc2oQhOVpysjt/wC2LA/8vkH/AH2K4D4k3UF1PZG3lSUANnac1U/4VprH96y/77P/AMTWRrXhy78PPEt4YSZc7fLJPT8KxnKTi00enhaFGFVOE7vsd34Bv7S28Nok9zFG/mMcMwFdL/bGn/8AP7B/32K8o0jwbqOuWS3dobYRlio8xiDx+FXv+Faaz/esv++z/wDE04zlZWRFbDUHNt1LO+x6fb3ttdEi3njkK9QjZxU/WuP8FeFb7w/dXUl4YCsqqF8tiTxn2967AVsm2tTzqsIwm1B3XczjoOmlyxtItxOScVogBQAOgqqdUslufs5uohNnbs3c5q3SUUtkZuTe7ILi8trTH2ieOLd03tjNRf2xp3/P7b/9/BXL+P8Awjf+KGszYtbr5Od3msR19MCuO/4VJrn/AD1sP++2/wDia1STWrJbZ2XxD1KzufB13HDdQyOWXCq4JPzVy3wnuoLXUdQa4mjiDRoAXOM8msfWvh9qugaZJf3cloYoyMiNyTzx3FUPD3he88UTTRWLQK0Khm80kZz6YHtWiS5XqTd3Pdv7Y0//AJ/bf/v4KdFqllNIscV3C7twFVwSa8l/4VJrn/PWw/77b/4mtPw18N9X0fxFZX9zJZmKB9zBHJPTHHFZuKtuO7PUqKBRUFBRRRQAUUUUAFFFFABRRRQAUUUUAFFFFABRRRQAUUUUAFFFFABRRRQAUUUUAFFFFABRRRQAUUUUAFFFFABRRRQAUUUUAFFFFABRRRQAUUUUAFFFFABRRRQAV5z8Uf8Aj5sP91q9GNecfFL/AI+bD/das6vwnZgP46Nz4df8iuv/AF1aurrlPhz/AMisn/XVq6uqh8KMsT/Gl6hRWZr+spoOmNeyRNKqsF2qeea5n/haFr/z4Tf99CrSbMDn7wL/AMLLBwM/bU7fSvWa8Wm1hJfFQ1YRMIxOsvlk88Y/wrsP+Fn23/PhN/30KuUW7CO5orI8O69H4gsnuY4WiCvsKsc1r1m1YZyvxK/5Em7/AN5P/QhXJfB//kJ6j/1yT+ZrrfiV/wAiTd/7yf8AoQrkvg//AMhPUf8Arkn8zWkfgZPU9XooorMoKKKKACiiigAooooAKKKKACiiigAooooAKKKKACiiigAooooAKKKKACiiigAooooAKKKKACiiigAooooAKKKKACiiigAooooAKKKKACiiigAooooAKKKKACiiigAqCezgucG4gilI6b1DY/Op6KATa2I4YYoE2QxpGv8AdUYFSUUUBe5V1LTbbVrU215H5kRIbbnHIrI/4QXQv+fP/wAfNdDRRdoDx25022j8bjT1jxam5SPZn+E4r0H/AIQXQv8Anz/8eNcddWdyfiKJRbzeV9rQ7ghxjjvXqVXJvSzAp6ZpNpo9u0FlF5cZbcRnPNXKKKgBksMc6FJo1kQ9VYZFMhsra2JMFvFESMEogXP5VNRQAUUUUAFFFFABRRRQAUUUUAFFFFABRRRQAUUUUAFFFFABRRRQAUUUUAFFFFABRRRQAUUUUAFFFFABRRRQAUUUUAFFFFABRRRQAUUUUAFFFFABRRRQAUUUUAFFFFABRRRQAUUUUAFFFFABRRRQAYooooAKKKKACiiigAooooAKKKKACiiigAooooAKKKKACiiigAooooAKKKKACiiigAooooAKKKKACiiigAooooAKKKKACiiigAooooAKKKKACiiigAooooAKKKKACiiigAooooAKKKKACiiigAooooAKKKKACiisvxNI0fhrUHjYq6wNgg4IoA1KK+bv7X1Hyx/p910/56GvoTR2Z9Gs2YlmMS5JOc8Vcocok7l2iiioGFFFFABRRRQAUUUUAFFFFABRRRQAUUUUAFFFFABRRRQAUUUUAFFFFABRRRQAUUUUAFFFFABRRRQAUUUUAUNZ1aDQ9MlvroOYouu0ZNcwvxW0N3VQl1liAP3Zq98Rv+RJvvov868Qt/8Aj5h/3x/OtIQTV2S3Zn0srh0DDowyKWo7f/j2i/3B/KpKzKCiiigAooooAKKKKACiiigAooooAKKKKACvKvHni3WdI8UzWtleGKBY0YKFBxkc16rXiXxP/wCR2n/65R/yq6aTlqTLY6z4a+I9T1y6vk1G5MyxopUEAYyfavQa8r+D3/H7qX+4n869UpTSUtBx2CiiipGFFFFABWV4p/5FfUf+uDVq1k+Kf+RX1H/rg1C3Ez55/wCWY+lfR2if8gSy/wCuK/yr5x/5Zj6V9HaJ/wAgSy/64r/KtquyJW5eooorEsKKKKACiiigAooooAKKKKACiiigAooooAKKKKACiiigAooooAKKKKACiiigAooooAKKKKACiiigAooooA5f4j/8iTffRf514hbf8fMX++P517f8R/8AkSb76L/OvELb/j5i/wB9f51vT+FkPc+lLf8A494v90fyp9R2/wDx7x/7o/lUlYFhRRRQAUUUUAFFZuua5Z+H9Pa8vZNqDhVHVz6CvI9a+I+tanOTaTtYwA/KsJ+Yj3Pr9MVUYOWwm7HtuR6j86WvnGTWtTlffJqF0zZzuMhNXbLxjrtjMjw6pcuFP3JX3qfwNX7J9xcx9Abl9R+dAIPQg/Q1843uq3V9ezXUkrK8rbmVGIA+lenfCKR5NH1Au7ORcDBY5/hFTKnZXGnc9BoooqBhXifxQ/5HaX/rlH/KvbK8T+KP/I6S/wDXGP8AlV0/iJlsbHwf/wCP3Uv+uafzr1QkDrXzppeu6hogm/s24MDTAB2ABPH1p1x4j1i6z9o1S7kz2MpxWkqbbvcSdkfRIOelFfO0HiPWLU5t9Uu4/pIcV2XhT4mXMVylrr0nmwNwtxjDKff1FQ6bSuNM9Xopsciyxq8bBkYZDA9RTqzKCsnxT/yK+o/9cGrWrJ8U/wDIr6j/ANcGoW4mfPP/ACzH0r6O0T/kCWX/AFxX+VfOP/LMfSvo7RP+QJZf9cV/lW1XZErcvUUUViWFFFcP40+IC6DJ9h04JPe4+ck/LF6Z9T7U0m3ZCbsdxRkV8/XPjHX7tmMmrXQDH7qPtA/Kq0ev6tC5aPU7tGPJIlIzWnsn3FzH0VRXiWifEfWdNukN7cNfWxOHST7wHsfX65r2DStUtdYsI7yzlEkUg4I7H0PvUSg47jTTLtFFFSMKKKzde1y18P6XJe3bfKo+VAfmdvQe9G4GlSZHqPzrw/V/iLrmpzloLlrKL+GOE4P4n1/KsOTW9TlcPJqF0zg8MZSa1VJvqTzH0bSbl9R+deAWnjLX7KRWj1W5cL/DK29T+Bqjfatd39/PdySsskzF2VCQAT6e1Hsn3DmPo3IPQg/Q0tcF8JZHk0C7Luzn7RwWOccV3tZtWdhp3CiiuA+KOr6hpUOnnT7ya2Ls24xtjd0xQld2Bux39FeM+CvEus33i6xt7rVLqaF2O5HfIPymvZqcouLswTuFFFeWfEvXdU0zxJBDYahcW0TWwYpG2ATuPP1pJXdgbsep0V5V8Nte1XU/EskN/qNxcRCAsEkbIBzXqtDXK7AncKKKKQwrzL4p6vf6dqtiljeTQK0JLLG2MnJr02sXXPCel+IZ4ptRiZ3iXapDYwKqLSeonqjxP/hKNb/6Cl3/AN/DR/wlGt/9BW7/AO/hr1n/AIVl4c/59pP+/lH/AArLw5/z7Sf9/K0549ibM8iude1W8gaC5v7iWJuGR3JBrPBIIIOCDkEdq9R8Y+BtF0fwzd3tnA6zRgbSXzjmvMIQHmjU9GYA/nWkWmroTVjSHifWgABql2ABgYkNH/CUa3/0Fbv/AL+GvVovhp4deFGNtJkqD/rKf/wrLw5/z7Sf9/Kz549h2Z5N/wAJRrf/AEFbv/v4a9c+HN7cX3hWOa7neaUyuCznJ60z/hWXhz/n2k/7+VvaPo9podgtnYoUhUlgCc9amck1ZIaTTL9FFMmkEUEjnoqk1mUeK/EnWzqniZ4IpC1vaDy1XPG/+I/yH4VjeHvD154k1IWtouFHMkpHyxj39/as64laa5llkOXdyxPrzXr3woshB4ZkuNoDzzMScdQOP6V0N8kdDNastWHwz0C0RfOt3uZB1aRzyfoKj1X4Y6LewMLKNrOc8q6MWH4g12dFY8z7l2Pm3UbNtO1C4tHdXaCQoWA64r1D4P8A/IG1H/r5H/oIrznxJ/yMupf9d2r0b4P/APIG1H/r5H/oIrWp8JK3PQqKKKwLCvFPij/yOcnvCn8q9rrxX4pf8jk//XFP5VdP4iZbFbwN4Ug8U3twt1PJHFAoYqnVs16Zb/Dvw5Am02HmEjBZ5GJ/nXJfB7/j91L/AK5p/OvVKdRtO1wilY8/1v4VafNbM+ju9vcDlUZtyN7c9K8qu7SaxupLa6iMU0Z2ujCvpWvIPizZLD4gtrlVA8+H5j6kHH8qqnNt2YNWN34V+IWu7KXSbmQtLb/NESeSh7fgf516FXhfw7uDb+NLMKcCQMhHrmvdKiorMa2CsnxT/wAivqP/AFwatasnxT/yK+o/9cGqFuDPnn/lmPpX0don/IEsv+uK/wAq+cf+WY+lfR2if8gSy/64r/KtquyJW5eooorEswvGGvDw94enulI89hshHqx/w614JLLJNM8sjM8sjbmY8lia9I+MFy3n6da7vlw0hX9K87s7g2d5DcBFkaJgwVxkHHTNb01ZXIb1O+8KfDE3sCXmuGSJG5W2XhiP9r0+lddL8OvDkkHliw2HsyyNn+dcF/wtfXf+edp/3wf8aP8Aha+u/wDPO0/79n/Gk1Nu9wTXYzvGXhCTwvex+W7S2c2fLkI5B/uk+taPwy8QNpuuf2fNJi1u+ACej9vz5FZfiDxpqPiSzS2vo4AiNvDIpBBrFsJWt9QtZV+8kqEfnV2bjZivrdH0nRTY33xq394A06uY0CvDviB4gbW/EMkUbk2lofLjUHgnuf6V7PqUxt9MuplODHC7g+mFJr5wdjI7sTksxJPrWtJXbZMjX8NeGbvxNf8AkWwKQr/rZiMhB/ifSvU9O+GmgWSDzoHupAOWlc8/gKb8MLJbbwhFLtAe4dnY+vPH6V2NKc23ZAlocXqvwv0W8hP2NHs5eqsjFh+INeRanYtpmp3Nk7q728hjLAYBxX0jXz14r/5G3Vf+vl6qnJt2YNJHpHwj/wCReuv+vg/yrva4L4R/8i7c/wDXwf5V3tZz3Y1sFea/GH/UaZ/vP/SvSq81+MP+o0z/AHn/AKU6fxIHscj8P/8AkddO/wB5v/QTXvFeD/D/AP5HXTv95v8A0E17xTq7iiFeO/Fr/ka7b/r0H/oTV7FXjvxa/wCRrtv+vQf+hNSp/EOWw34Uf8jZL/17H+deyV438KP+Rsl/69j/ADr2SnU+IUdgooorMoKKKKACiiigDl/iP/yJN99F/nXiFt/x8xf74/nXt/xH/wCRJvvov868Qtv+PmH/AHx/Ot6fwsh7n0pb/wDHvF/uj+VPplv/AMe8X+6P5U+sCwooooAKjuIxLBJGf4lIqSigD5ouI2huZYnGGRypHpXsPwqvVuPCpgyN1vKykZ9ef61wnxF0c6T4pmkRGEF0PNVsYGT1H+fWqPhXxNceGNT+0RqZIJBtmiz94e3uK6GueOhmtGe/0VhWHjTQ9RhV4tQiQkcpIdpH51PP4p0W2QtNqdsAOuHz/KsLPsXc8N8R/wDIyaj/ANd2r0b4Pf8AIE1D/r5H/oIrzPWpo7nW72eFg8UkzMrDjIr034P/APIDv/8Ar5/9lFbVPhJW56DRRRWBYV4r8Uv+Rxf/AK4p/Kvaq8W+Kf8AyOJ/64JWlP4iZbGr8Hv+P3Uv+uafzr1SvGfhr4g0/Qr67/tKfyVnVVViuRwfavUV8UaM8ZddTtio6nfRUT5gTVjVryP4t3qy69aWqnPkw5YehJ/wrqtc+JWkadbMLGUXtyRhVQYUH3J7fTNeP6jfz6nfzXl2++aVtzN2H/1hTpxd7sJPobvw7tmuPGlltGREGcn0xXutecfCjQHt7abV7hCpnGyEEfwjqfxP8q9Hqajuxx2CsnxT/wAivqP/AFwatasnxT/yK+o/9cGqFuDPnn/lmPpX0don/IEsv+uK/wAq+cf+WY+lfR2if8gSy/64r/KtquyJW5eooorEs8r+MFuwvdOuMfIUaPPvnNcX4dt7S71+0ttRDG2mfYxDYxnoa9i8eaC2veHZUhXdcwHzIh6kdR+I4rwv5kfjKup+hBH9RW9N3ViHue0f8Kt8Pf3J/wDv5R/wqzw//cuP+/lZ/hP4k2dxaxWesyeRcRqFEzfdkx6+hrtYtY06aJZEvrYowyD5orNuSdilZnNf8Ks8P/3J/wDv5Sr8LvD6OGCT5Ugj956Vs3fizRLFGafUrcYHIDbv5Vl6N49tNe8QDTrCGQx+WzmZ+OmOAPxovINDqkQRoqDoowKdRRUDKupwm40q7hUZMkLoB65UivnB0MbspGCrEEelfTNeE+PNBfQ/EcxVT9muSZImxxk9R9R/WtaT1aJkej/DO9W68HwRhhvgZo2Hpzx+ldfXgvhDxXN4Xv2cKZbWX/WxA/qPcV61p/jjQdRjVo9QjjY/wS/KRUzi0wTOgr558U/8jXqn/Xy1e3zeKtFt1Jl1O2AHo2f5V4Zr9zFeeIdQuLdw8Us7MjDjINXSTuwkz0/4Sf8AIt3H/Xwf5V3dcL8Jf+Ran/6+GruqznuxrYK81+MP+o0z/ef+lelVwnxY0+S58PQ3UYJ+yy5YAdFPU/hgUQ0aB7HA+ACB4107JxlmH/jpr3mvm/Sr9tK1W2vUG4wSB9o4yP8A9Wa+gNI1mz1mzS5s50kVhkgHlT6EVdVO9xRNCvHfi1/yNdv7Wi5/76avW7q8t7GFprqZIo1GSznAFeE+MtcTxD4kmu4RiFQIoz6qO/45NKmncJPQ2fhR/wAjXJ/17n+deyV5T8ItOd7+91AqfLSPyVb1JOT+WK9WpVH7w47BRRRUDCiiigAooooA5f4jkDwTfZ9B/OvD7d1+0w/Mv3x396+lJoYriIxzIsiHqrDIqqNG05cEWNvkdP3Yq4zsrEtXZbt/+PaL/cH8qfQBgYHQUVBQUUUUAFFFFAGfrGiWWu2TWt/CJEP3TjlT6g9jXk+u/DPVdMd5LEfbbbORs4cD3Hc/TNe0UVUZtbCaTPmqaxubdylxazI68EPGRio0t3c/JCzH2QmvpV4Yn+9GjZ9VBpFtYE+7BEPogFae18hcp8+WXhvV9RcLa6dcP/tFCoH4mvWvh54evvDukXEOoqqyzTeYFU5wNoH58V1oAHAAA9hS1EqjasNKwUUUVAwrzP4g+DdW1fWzqGnwrNH5QUqGAbI+temUU4tp3E1c+cLrR9RspCl1Y3EbDsYzVTyWzgxNn0219MMit95QfqKj+y25O4wRZ9dgrX2vkLlPney0XUb8hbSwuJecZWM4H4133hX4YSJOl1r4TavK2ynOT/te3tXpyoqcKoX6DFOqXUbBIZHGkUapGqoijCqowAKfRRWZQVk+Kf8AkV9R/wCuDVrVk+Kf+RX1H/rg1C3E9j55/wCWY+lfR2if8gWy/wCuK/yr5w/5ZDr09K+j9E/5Atl/1xX+VbVdkKJeooorEoK4Pxn8O49YY3ukiOC7wd8eMLL/AIH3rvKKabTuhNXPnXUdA1PSpDHfWM8eP4tuVP4jis3KjjIGO2cYr6aZFcYZQw9CM1WbSbByS1nASfWMVqqvdC5T5ygtpLlwtvC8rscAIpYn8q9I+HPhTVtO1kale2xgg8lkCufmJOO3bp3r0qK0t4MeTBEmP7qgVNUyqNqwJBRRRWZQVn61olpr2nvaXsYZGHytj5kPqD2NaFFGwHieufDbWNLdntU+3W+eDH94fVf8K5e4srm3cpcWs0bL1DxkY/OvpSo3hik+/GjfVQa1VVrcnlPmpbd5D8kLMfZCa07HwxrOpEC1064YH+Jl2j8zX0CttAn3YY1+iipAAOAAB7UOr5BynMeAtAvPD2hvbagEEryl9qHIANdRRRWTd3coKjngiuYXimRZI3G1lYZBFSUUAeQ+JvhjfWlzLcaKouLViWEIOGj9h6gVyBtdV0qQjyb21fvgOmfyr6NprRo/3kVvqM1oqjSsTynzmRqmokIwvrkk8K298/nXS+HvhtqerSLJqCtY2oPO4YdvoO3417MIo15VFB9hT6HUdtAsVNM0y10iyjtLKJYoY+gA5PufU+9W6KKzKCiiigAooooAKKKKACiiigAooooAKKKKACiiigAooooAKKKKACiiigAooooAKKKKACiiigAooooAKKKKACmuiyIVdQysMEEdadRQBU/smw6fYrfH/XMVaChFCqAFA4ApaKACiiigAooooAKKKKACiiigAooooAKKKKACiiigAooooAKKKKACiiigAooooAKKKKACiiigAooooAKKKKACiiigAooooAKKKKACiiigAooooAKKKKACiiigAooooAKKKKACiiigAooooAKKKKACiiigAooooAKKKKACiiigAooooAKKKKACiiigAooooAKKKKACiiigAooooAKKKKACiiigAooooAKKKKACiiigAooooAKKKKACiiigAooooAKKKKACiiigAooooAKKKKACiiigAooooAKKKKACiiigAooooAKKKKACiiigAooooAKKKKACiiigAooooAKKKKACiiigAooooAKKKKACiiigAooooAKKKKACiiigAooooAKKKKACiiigAooooAKKKKACiiigAooooAKKKKACiiigAooooAKKKKACiiigAooooAKKKKACiiigAooooAKKKKACiiigAooooAKKKKACiiigAooooAKKKKACiiigAooooAKKKKACiiigAooooAKKKKACiiigAooooAKKKKACiiigAooooAKKKKACiiigAooooAKKKKACiiigAooooAKKKKACiiigAooooAKKKKACiiigAooooAKKKKACiiigAooooAKKKKACiiigAooooAKKKKACiiigAooooAKKKKACiiigAooooAKKKKACiiigAooooAKKKKACiiigAooooAKKKKACiiigAooooAKKKKACiiigAooooAKKKKACiiigAooooAKKKKACiiigAooooAKKKKACiiigAooooAKKKKACiiigAooooAKKKKACiiigAooooAKKKKACiiigAooooAKKKKACiiigAooooAKKKKACiiigAooooAKKKKACiiigAooooAKKKKACiiigAooooAKKKKACiiigAooooAKKKKACiiigAooooAKKKKACiiigAooooAKKKKACiiigAooooAKKKKACiiigAooooAKKKKACiiigAooooAKKKKACiiigAooooAKKKKACiiigAooooAKKWigBKKWigBKKWigBKKWigBKKWigBKKWigBKKWigBKKWigBKKWigBKKWigBKKWigBKKWigBKKWigBKKWigBKKWigBKKWigBKKWigBKKWigBKKWigBKKWigBKKWigBKKWigBKKWigBKKWigBKKWigBKKWigBKKWigBKKWigBKKWigBKKWigD//2Q==;" vertex="1" parent="1">
          <mxGeometry x="1046" y="390" width="94" height="94" as="geometry" />
        </mxCell>
        <mxCell id="1uTQNlGQSllIEXjCBKUj-26" value="" style="endArrow=classic;html=1;rounded=0;" edge="1" parent="1">
          <mxGeometry width="50" height="50" relative="1" as="geometry">
            <mxPoint x="950" y="290" as="sourcePoint" />
            <mxPoint x="1030" y="290" as="targetPoint" />
          </mxGeometry>
        </mxCell>
      </root>
    </mxGraphModel>
  </diagram>
</mxfile>
